<svg xmlns="http://www.w3.org/2000/svg" width="193.895" height="183.744" viewBox="0 0 193.895 183.744">
  <g id="undraw_connected_re_lmq2" transform="translate(0.043 0.009)">
    <path id="Path_284" data-name="Path 284" d="M349.033,180.815a34.987,34.987,0,0,1-15.006,28.747,34.564,34.564,0,0,1-4.092,2.461c-.471.242-.945.471-1.428.689-.435.2-.873.387-1.317.565A35.159,35.159,0,0,1,309.8,215.6q-1.531-.181-3.023-.5l-.13-.027a34.219,34.219,0,0,1-6.085-1.894,35.035,35.035,0,1,1,48.467-32.362Z" transform="translate(-279 -145.79)" fill="#ebebeb"/>
    <path id="Path_285" data-name="Path 285" d="M376.162,232.985c-.03-.036-.063-.069-.1-.1a10.1,10.1,0,0,0-14.206-.145c-.021.018-.039.036-.057.054s-.045.042-.066.063a10.1,10.1,0,0,0-2.966,7.151v6.342a1.361,1.361,0,0,0,1.359,1.359h17.516A1.361,1.361,0,0,0,379,246.348v-6.342A10.071,10.071,0,0,0,376.162,232.985Z" transform="translate(-334.71 -204.498)" fill="#2f2e41"/>
    <circle id="Ellipse_17" data-name="Ellipse 17" cx="7.417" cy="7.417" r="7.417" transform="translate(27.166 28.312)" fill="#ffb7b7"/>
    <path id="Path_286" data-name="Path 286" d="M382.812,242.908l-.876-6.118a.766.766,0,0,0-.269-.48.794.794,0,0,0-.16-.1,15.316,15.316,0,0,0-13.517-.006.739.739,0,0,0-.166.106c-.018.015-.036.033-.054.051a.764.764,0,0,0-.211.456l-.586,6.128a.757.757,0,0,0,.193.58.748.748,0,0,0,.435.236.554.554,0,0,0,.124.012h1.486a.762.762,0,0,0,.685-.435l.643-1.377a.451.451,0,0,1,.858.136l.127,1.015a.759.759,0,0,0,.749.661h9.794a.726.726,0,0,0,.365-.1.74.74,0,0,0,.381-.767Z" transform="translate(-340.432 -207.81)" fill="#2f2e41"/>
    <path id="Path_287" data-name="Path 287" d="M439.462,325.883l2.1,7.037a34.563,34.563,0,0,1-4.092,2.461c-.471.242-.945.471-1.428.689l-2.178-9.335-.846-3.621,5.436-.6Z" transform="translate(-386.536 -269.147)" fill="#ffb7b7"/>
    <path id="Path_288" data-name="Path 288" d="M356.855,329.81l-.181,9.507-.078,4.207a34.22,34.22,0,0,1-6.085-1.893l.722-9.006.181-2.271Z" transform="translate(-328.944 -274.242)" fill="#ffb7b7"/>
    <path id="Path_289" data-name="Path 289" d="M380.306,310.632l-5.46.818.066.9.658,9.036a35.158,35.158,0,0,1-17.386,2.319q-1.531-.181-3.023-.5c.447-1.878.834-3.57.356-3.9a3.623,3.623,0,0,1-.408-.332c-2.226-2.123-1.4-6.916-1.4-6.916l-4.038.224-1.4.078s.6-9.664,3.322-9.664h3.322l16.006-1.51s4.53-1.51,5.738.6c.634,1.108,1.764,3.458,2.7,5.445.846,1.806,1.531,3.313,1.531,3.313Z" transform="translate(-327.381 -253.896)" fill="#2f2e41"/>
    <path id="Path_290" data-name="Path 290" d="M759.056,181.207A34.985,34.985,0,0,1,744.293,209.4l-.242.169c-.085.06-.172.121-.26.178q-.761.525-1.552,1.006-1.114.68-2.28,1.277l-.076.036q-.67.344-1.353.652l-.042.018c-.106.048-.217.1-.326.145-.843.374-1.7.716-2.579,1.018q-1.119.394-2.271.707a34.348,34.348,0,0,1-4.787.96,34.906,34.906,0,0,1-4.155.284c-.115,0-.23,0-.344,0-.758,0-1.513-.024-2.259-.072-.652-.042-1.3-.1-1.939-.178-.987-.118-1.963-.275-2.923-.48-.042-.006-.084-.015-.127-.024l-.1-.021c-.966-.2-1.918-.45-2.851-.734q-1.318-.4-2.588-.9c-.217-.085-.432-.169-.646-.26-.534-.223-1.063-.456-1.582-.707-.151-.069-.3-.142-.447-.214-.5-.245-1-.5-1.48-.773q-.874-.485-1.718-1.018c-.71-.447-1.4-.918-2.078-1.416a35.032,35.032,0,1,1,55.771-27.848Z" transform="translate(-565.206 -145.796)" fill="#ebebeb"/>
    <path id="Path_291" data-name="Path 291" d="M774.071,326.7c-.966-.2-1.918-.45-2.851-.734l3.2-19.868,3.319-.1,6.019-.19,3.086-.1s2.189,9.622,3.859,20.521a34.341,34.341,0,0,1-4.787.96,34.91,34.91,0,0,1-4.155.284c-.115,0-.23,0-.344,0-.758,0-1.513-.024-2.259-.072-.652-.042-1.3-.1-1.939-.178-.988-.118-1.963-.275-2.923-.48-.042-.006-.085-.015-.127-.024Z" transform="translate(-622.601 -257.421)" fill="#cbcbcb"/>
    <path id="Path_292" data-name="Path 292" d="M761.52,326.3c-.042-.006-.084-.015-.127-.024l-.1-.021c-.966-.2-1.918-.45-2.851-.734q-1.318-.4-2.588-.9c-.217-.085-.432-.169-.646-.26-.534-.223-1.063-.456-1.582-.707-.151-.069-.3-.142-.447-.214l-.266-14.876,8.154-3.494s.027.217,3.9.48C765.7,307.954,761.52,326.3,761.52,326.3Z" transform="translate(-609.821 -256.974)" fill="#2f2e41"/>
    <path id="Path_293" data-name="Path 293" d="M822.535,306.066,821,314.145l.145,7.305q-.67.344-1.353.652l-.042.018c-.106.048-.217.1-.326.145-.843.374-1.7.716-2.579,1.018q-1.119.394-2.271.707a34.34,34.34,0,0,1-4.787.96,34.91,34.91,0,0,1-4.155.284l-.16-12.947c-.338-4.174.782-6.934,2.156-8.722,7.323-.978,7.16-1.066,7.16-1.066l7.764,3.494Z" transform="translate(-646.465 -255.18)" fill="#2f2e41"/>
    <path id="Path_294" data-name="Path 294" d="M749.627,317.805l-.553,14.891c-.217-.085-.432-.169-.646-.26-.534-.223-1.063-.456-1.582-.707-.151-.069-.3-.142-.447-.214-.5-.245-1-.5-1.48-.773q-.874-.485-1.718-1.018l2.932-13.086Z" transform="translate(-603.043 -265.05)" fill="#2f2e41"/>
    <path id="Path_295" data-name="Path 295" d="M857.417,326.908l-.242.169c-.084.06-.172.121-.26.178q-.761.526-1.552,1.006-1.114.68-2.28,1.277l-.076.036q-.69.355-1.394.671h0L851.06,315.3l3.34-1.111.154-.051Z" transform="translate(-678.33 -263.305)" fill="#2f2e41"/>
    <ellipse id="Ellipse_18" data-name="Ellipse 18" cx="8.638" cy="8.616" rx="8.638" ry="8.616" transform="translate(148.191 40.499) rotate(-73.66)" fill="#9f616a"/>
    <path id="Path_296" data-name="Path 296" d="M773.884,238.436v-3.362s-2.711-3.193.271-4c0,0,.813-8.043,7.862-4.289,0,0,9.759-1.609,8.675,4.021,0,0,2.44-1.47,1.627,2.283l-1.573,6.046s.76-3.994-1.68-4.53l-1.355-.8s-3.8,3.753-9.488-.8c0,0-2.44-.582-2.169,1.83S773.884,238.436,773.884,238.436Z" transform="translate(-623.673 -201.636)" fill="#2f2e41"/>
    <path id="Path_297" data-name="Path 297" d="M554.04,530.814a34.987,34.987,0,0,1-15.006,28.747c-.085.06-.172.121-.26.178q-.761.525-1.552,1.006-1.114.68-2.28,1.277c-.471.242-.945.471-1.428.689-.121.054-.245.112-.369.163-.843.374-1.7.716-2.579,1.018a34.482,34.482,0,0,1-7.058,1.667,35.111,35.111,0,0,1-4.5.287c-.758,0-1.513-.024-2.259-.072-.652-.042-1.3-.1-1.939-.178q-1.545-.186-3.05-.5l-.1-.021a34.22,34.22,0,0,1-6.085-1.893c-.534-.224-1.063-.456-1.582-.707q-.983-.462-1.927-.987a35.034,35.034,0,1,1,51.977-30.668Z" transform="translate(-422.098 -390.09)" fill="#ebebeb"/>
    <circle id="Ellipse_19" data-name="Ellipse 19" cx="7.823" cy="7.823" r="7.823" transform="translate(88.126 133.713)" fill="#ffb8b8"/>
    <path id="Path_298" data-name="Path 298" d="M579.05,671.238c-1.03-.124-2.048-.29-3.05-.5l.951-21.406.136-.142,1.948-2.057h6.194l2.286,2.214.193.19,4.889,4.684,2.208,15.317a34.49,34.49,0,0,1-7.058,1.667,35.121,35.121,0,0,1-4.5.287c-.758,0-1.513-.024-2.259-.072C580.337,671.374,579.691,671.317,579.05,671.238Z" transform="translate(-486.337 -495.733)" fill="#cbcbcb"/>
    <path id="Path_299" data-name="Path 299" d="M545.573,672.629q-.983-.462-1.927-.988c-.063-5.8-.106-9.649-.106-9.649l.737-.45.027-.012,8.362-5.08,1.755-2.851.009.1.516,6.01a104.724,104.724,0,0,1,3.385,16.22c-.652-.042-1.3-.1-1.939-.178-1.03-.124-2.048-.29-3.05-.5l-.1-.021a34.224,34.224,0,0,1-6.085-1.894C546.62,673.112,546.092,672.879,545.573,672.629Z" transform="translate(-463.68 -500.249)" fill="#2f2e41"/>
    <path id="Path_300" data-name="Path 300" d="M620.264,674.051a34.481,34.481,0,0,1-7.058,1.667,27.563,27.563,0,0,1-.365-5.9c.652-10.428-.852-16.214-.2-16.214l.332.26,4.1,3.243,5.4,1.981h0l3.718,1.362.655.242V661c0,1.075.009,4.838.063,9.906q-1.114.68-2.28,1.277c-.471.242-.945.471-1.428.689-.121.054-.245.112-.368.163C622,673.408,621.14,673.749,620.264,674.051Z" transform="translate(-511.796 -500.249)" fill="#2f2e41"/>
    <path id="Path_301" data-name="Path 301" d="M567.664,591.316s.665-1.167.51-5.066,5.783-1.694,10.745-2.066,3.911,6.51,3.911,6.51.358-.409,1.124-3.73a10.844,10.844,0,0,0-.974-6.631c-.512-3.49-3.274-2.371-3.274-2.371a1.448,1.448,0,0,1,1.075,1.625c-1.126-1.974-3.888-.855-3.888-.855-3.683-2.311-7.417.733-7.417.733-4.45,1.01-1.84,4.549-1.84,4.549C563.161,586.272,567.664,591.316,567.664,591.316Z" transform="translate(-479.115 -447.333)" fill="#2f2e41"/>
    <path id="Path_302" data-name="Path 302" d="M531.32,687.536c.115-2.654.166-4.367.106-4.605-.311-1.244,3.935-2.911,4.322-3.059l.027-.012.864.462.4,10.636q-.983-.462-1.927-.987a34.785,34.785,0,0,1-3.8-2.434Z" transform="translate(-455.15 -518.579)" fill="#2f2e41"/>
    <path id="Path_303" data-name="Path 303" d="M647.746,683.468q-1.114.68-2.28,1.278c-.471.242-.945.471-1.428.689-.121.054-.245.112-.368.163L642.31,672.18l.794-.58.2.048h0a15.715,15.715,0,0,1,3.718,1.362,2.33,2.33,0,0,1,.655.553.671.671,0,0,1,.154.477c-.036.35.568,3.672,1.462,8.423Q648.537,682.988,647.746,683.468Z" transform="translate(-532.622 -512.813)" fill="#2f2e41"/>
    <path id="Path_304" data-name="Path 304" d="M127.991,355.027H115V296.788h.6v57.635h12.387Z" transform="translate(-80.3 -207.165)" fill="#ebebeb"/>
    <path id="Path_305" data-name="Path 305" d="M496.983,353.778H483.992v-.6h12.387V295h.6Z" transform="translate(-337.858 -205.917)" fill="#ebebeb"/>
    <circle id="Ellipse_20" data-name="Ellipse 20" cx="7.984" cy="7.984" r="7.984" transform="translate(150.837 60.842)" fill="#019645"/>
    <circle id="Ellipse_21" data-name="Ellipse 21" cx="7.984" cy="7.984" r="7.984" transform="translate(27.018 61.465)" fill="#019645"/>
    <circle id="Ellipse_22" data-name="Ellipse 22" cx="7.984" cy="7.984" r="7.984" transform="translate(88.927 167.767)" fill="#019645"/>
    <path id="Vector" d="M.146,4.41A.9.9,0,0,1-.488,2.881L2.881-.488A.9.9,0,0,1,4.148.779L.779,4.147A.893.893,0,0,1,.146,4.41Z" transform="translate(95.081 174.346)" fill="#fff"/>
    <path id="Vector-2" data-name="Vector" d="M3.514,4.41a.893.893,0,0,1-.633-.262L-.488.779A.9.9,0,0,1,.779-.488L4.148,2.881A.9.9,0,0,1,3.514,4.41Z" transform="translate(95.081 174.346)" fill="#fff"/>
    <path id="Vector-3" data-name="Vector" d="M.146,4.41A.9.9,0,0,1-.488,2.881L2.881-.488A.9.9,0,0,1,4.148.779L.779,4.147A.893.893,0,0,1,.146,4.41Z" transform="translate(156.989 66.995)" fill="#fff"/>
    <path id="Vector-4" data-name="Vector" d="M3.514,4.41a.893.893,0,0,1-.633-.262L-.488.779A.9.9,0,0,1,.779-.488L4.148,2.881A.9.9,0,0,1,3.514,4.41Z" transform="translate(156.989 66.995)" fill="#fff"/>
    <path id="Vector-5" data-name="Vector" d="M.146,4.41A.9.9,0,0,1-.488,2.881L2.881-.488A.9.9,0,0,1,4.148.779L.779,4.147A.893.893,0,0,1,.146,4.41Z" transform="translate(33.172 68.227)" fill="#fff"/>
    <path id="Vector-6" data-name="Vector" d="M3.514,4.41a.893.893,0,0,1-.633-.262L-.488.779A.9.9,0,0,1,.779-.488L4.148,2.881A.9.9,0,0,1,3.514,4.41Z" transform="translate(33.172 68.227)" fill="#fff"/>
  </g>
</svg>
