<svg xmlns="http://www.w3.org/2000/svg" width="150" height="149.979" viewBox="0 0 150 149.979">
  <g id="Group_466" data-name="Group 466" transform="translate(-113 -245)">
    <path id="Path_284" data-name="Path 284" d="M428.957,220.773a74.892,74.892,0,0,1-32.121,61.534,73.977,73.977,0,0,1-8.759,5.268c-1.008.517-2.023,1.008-3.057,1.474-.931.427-1.868.827-2.819,1.209a75.257,75.257,0,0,1-37.215,4.965q-3.277-.388-6.471-1.067l-.278-.058a73.246,73.246,0,0,1-13.026-4.053,74.995,74.995,0,1,1,103.746-69.272Z" transform="translate(-165.957 99.219)" fill="#f8f8f8"/>
    <g id="Group_459" data-name="Group 459" transform="translate(1.177 17.582)">
      <path id="Path_327" data-name="Path 327" d="M856.522,614.279H836.237v-7.073a10.142,10.142,0,1,1,20.285,0Zm-19.836-.449h19.386V607.2a9.693,9.693,0,0,0-19.386,0Z" transform="translate(-658.185 -341.811)" fill="#cacaca"/>
      <path id="Path_328" data-name="Path 328" d="M581.942,454.611v-2.764l-51.587,1.383-1.633,70.021,7.635,9.431Z" transform="translate(-373.576 -183.117)" fill="#959595"/>
      <path id="Path_329" data-name="Path 329" d="M594.056,454.468l-55.914,1.273,1.2,77.771L593.3,527.7Z" transform="translate(-376.557 -183.947)" fill="#d9d9d9"/>
    </g>
  </g>
</svg>
