<svg xmlns="http://www.w3.org/2000/svg" width="19.533" height="16" viewBox="0 0 19.533 16">
  <path id="barcode_scanner_FILL0_wght400_GRAD0_opsz48" d="M2,6H6.044V7.333H3.333v2.711H2ZM17.489,6h4.044v4.044H20.2V7.333H17.489ZM20.2,20.667V17.956h1.333V22H17.489V20.667ZM3.333,17.956v2.711H6.044V22H2V17.956ZM7.2,8.444h.933V19.533H7.2Zm-2.689,0H6.289V19.533H4.511Zm5.4,0h1.844V19.533H9.911Zm6.4,0h.933V19.533h-.933Zm1.844,0H19V19.533h-.844Zm-5.467,0h2.689V19.533H12.689Z" transform="translate(-2 -6)" fill="#959595"/>
</svg>
