<svg id="book" xmlns="http://www.w3.org/2000/svg" width="20" height="20" viewBox="0 0 20 20">
  <path id="Union_7" data-name="Union 7" d="M3.542,17.917A3.545,3.545,0,0,1,0,14.375V4.792c0-1.96.294-3.053,1.016-3.775S2.832,0,4.792,0h5.833c1.96,0,3.053.295,3.775,1.017s1.016,1.815,1.016,3.775v9.583a3.545,3.545,0,0,1-3.542,3.542ZM1.25,13.834v.542a2.3,2.3,0,0,0,2.292,2.292h8.333a2.3,2.3,0,0,0,2.292-2.292v-.8a.628.628,0,0,1-.007-.147c.007-.095.007-.2.007-.306V12.083H3A1.752,1.752,0,0,0,1.25,13.834ZM1.9,1.9c-.455.456-.65,1.321-.65,2.891V11.4A2.984,2.984,0,0,1,3,10.834H14.167V4.792c0-1.57-.2-2.435-.65-2.891s-1.321-.65-2.892-.65H4.792C3.22,1.25,2.356,1.444,1.9,1.9ZM4.375,8.333a.625.625,0,0,1,0-1.25H8.542a.625.625,0,0,1,0,1.25Zm0-2.916a.625.625,0,0,1,0-1.25h6.667a.625.625,0,0,1,0,1.25Z" transform="translate(2.292 1.041)" fill="#019645"/>
  <path id="Vector" d="M0,0H20V20H0Z" transform="translate(20 20) rotate(180)" fill="none" opacity="0"/>
</svg>
