<svg id="call-calling" xmlns="http://www.w3.org/2000/svg" width="20" height="20" viewBox="0 0 20 20">
  <g id="call-calling-2" data-name="call-calling" transform="translate(1.25 1.25)">
    <path id="Vector" d="M12.432,16.75a7.4,7.4,0,0,1-2.892-.643,14.949,14.949,0,0,1-2.919-1.68,24.158,24.158,0,0,1-2.739-2.339l0,0a23.845,23.845,0,0,1-2.33-2.732,15.173,15.173,0,0,1-1.663-2.9,7.5,7.5,0,0,1-.634-2.9,4.818,4.818,0,0,1,.337-1.8A4.361,4.361,0,0,1,.666.186,2.972,2.972,0,0,1,2.781-.75a2.145,2.145,0,0,1,.919.2,1.934,1.934,0,0,1,.785.657L6.37,2.77a3.382,3.382,0,0,1,.392.688,1.873,1.873,0,0,1,.161.732,1.7,1.7,0,0,1-.255.887,3.372,3.372,0,0,1-.546.7l-.56.583.022.053a6.358,6.358,0,0,0,.664.9c.4.462.775.871,1.148,1.251.5.488.885.846,1.257,1.163a5.725,5.725,0,0,0,.917.662l.048.021.563-.555a3.082,3.082,0,0,1,.714-.553,1.675,1.675,0,0,1,.878-.25A1.894,1.894,0,0,1,12.5,9.2a3.736,3.736,0,0,1,.682.378l.01.007L15.883,11.5a1.849,1.849,0,0,1,.655.775l.008.019a2.287,2.287,0,0,1,.174.862,2.672,2.672,0,0,1-.262,1.148,3.946,3.946,0,0,1-.653.98A4.252,4.252,0,0,1,14.25,16.4,4.7,4.7,0,0,1,12.432,16.75ZM4.743,11.223a22.931,22.931,0,0,0,2.6,2.218,13.728,13.728,0,0,0,2.678,1.543,6.2,6.2,0,0,0,2.413.545,3.5,3.5,0,0,0,1.352-.262A3.063,3.063,0,0,0,14.9,14.46a2.743,2.743,0,0,0,.453-.681,1.46,1.46,0,0,0,.145-.627,1.053,1.053,0,0,0-.082-.4.627.627,0,0,0-.232-.256l-.006,0L12.49,10.585a2.538,2.538,0,0,0-.452-.254.7.7,0,0,0-.265-.06.477.477,0,0,0-.26.082l-.035.02a1.922,1.922,0,0,0-.437.346l-.621.613a1.058,1.058,0,0,1-.762.314,1.17,1.17,0,0,1-.418-.071l-.026-.01-.087-.039-.045-.02-.03-.012-.029-.015a6.849,6.849,0,0,1-1.158-.822c-.4-.337-.806-.716-1.327-1.227l-.008-.008c-.393-.4-.787-.83-1.206-1.314l0-.005a7.324,7.324,0,0,1-.827-1.144L4.465,6.91l-.017-.052c0-.011-.01-.023-.015-.037-.013-.032-.028-.066-.042-.1l-.012-.033L4.37,6.65a1.348,1.348,0,0,1-.043-.335,1.048,1.048,0,0,1,.3-.752l.623-.648a2.193,2.193,0,0,0,.356-.447l.01-.017a.5.5,0,0,0,.082-.26.708.708,0,0,0-.065-.256l0-.009a2.185,2.185,0,0,0-.256-.444l0,0L3.484.81a.72.72,0,0,0-.3-.249l-.008,0a.917.917,0,0,0-.4-.086,1.777,1.777,0,0,0-1.264.59l-.009.009A3.155,3.155,0,0,0,.721,2.208,3.608,3.608,0,0,0,.471,3.556a6.286,6.286,0,0,0,.538,2.425A13.944,13.944,0,0,0,2.536,8.637,22.611,22.611,0,0,0,4.743,11.223Z" transform="translate(0.75 0.75)" fill="#019645"/>
    <path id="Vector-2" data-name="Vector" d="M3.5,4.25a.75.75,0,0,1-.75-.75,3.347,3.347,0,0,0-.968-1.758A2.7,2.7,0,0,0,0,.75.75.75,0,0,1-.75,0,.75.75,0,0,1,0-.75,4.119,4.119,0,0,1,2.88.72,4.626,4.626,0,0,1,4.25,3.5.75.75,0,0,1,3.5,4.25Z" transform="translate(10.598 3.402)" fill="#019645"/>
    <path id="Vector-3" data-name="Vector" d="M7,7.75A.75.75,0,0,1,6.25,7,6.21,6.21,0,0,0,4.421,2.579,6.21,6.21,0,0,0,0,.75.75.75,0,0,1-.75,0,.75.75,0,0,1,0-.75,7.7,7.7,0,0,1,5.482,1.518,7.7,7.7,0,0,1,7.75,7,.75.75,0,0,1,7,7.75Z" transform="translate(9.75 0.75)" fill="#019645"/>
  </g>
  <path id="Vector-4" data-name="Vector" d="M0,0H20V20H0Z" fill="none" opacity="0"/>
</svg>
