<svg xmlns="http://www.w3.org/2000/svg" width="24" height="24" viewBox="0 0 24 24">
  <g id="vuesax_bulk_people" data-name="vuesax/bulk/people" transform="translate(-620 -252)">
    <g id="people">
      <path id="Vector" d="M0,0H24V24H0Z" transform="translate(620 252)" fill="none" opacity="0"/>
      <path id="Union_28" data-name="Union 28" d="M-4944.97-6186.5l-1.2-1.6a.927.927,0,0,0-.64-.319h-.4c-3.19,0-4.791-.791-4.791-4.791v-4c0-2.93,1.351-4.52,4.04-4.75a6.214,6.214,0,0,1,.751-.041h6.4q4.785,0,4.79,4.791v4a6.137,6.137,0,0,1-.039.751c-.23,2.7-1.821,4.04-4.75,4.04h-.4a.807.807,0,0,0-.64.319l-1.2,1.6a1.21,1.21,0,0,1-.961.533A1.206,1.206,0,0,1-4944.97-6186.5Zm3.46-8.5a1,1,0,0,0,1,1,1,1,0,0,0,1-1,1,1,0,0,0-1-1A1,1,0,0,0-4941.509-6195Zm-3.5,0a1,1,0,0,0,1,1,1,1,0,0,0,1-1,1,1,0,0,0-1-1A1,1,0,0,0-4945.01-6195Zm-3.491,0a1,1,0,0,0,1,1,1,1,0,0,0,1-1,1,1,0,0,0-1-1A1,1,0,0,0-4948.5-6195Zm13.971,1.491.011-3.7c0-4-2.291-6.291-6.291-6.291l-6.089.011a.438.438,0,0,1-.41-.651c.749-1.24,2.109-1.86,4.1-1.86h6.4q4.784,0,4.791,4.791v4c0,2-.62,3.359-1.861,4.11a.414.414,0,0,1-.213.061A.457.457,0,0,1-4934.53-6193.509Z" transform="translate(5574.01 6459.983)"/>
    </g>
  </g>
</svg>
