<svg xmlns="http://www.w3.org/2000/svg" width="24" height="24" viewBox="0 0 24 24">
  <g id="vuesax_bulk_people" data-name="vuesax/bulk/people" transform="translate(-620 -252)">
    <g id="people">
      <path id="Vector" d="M0,0H24V24H0Z" transform="translate(620 252)" fill="none" opacity="0"/>
      <path id="Union_27" data-name="Union 27" d="M525.179-4449.3l-1.185-1.58a.255.255,0,0,0-.075-.039h-.379a6.125,6.125,0,0,1-4.085-1.081c-.993-.867-1.455-2.284-1.455-4.459v-4a5.828,5.828,0,0,1,1.189-3.874,4.742,4.742,0,0,1,2.93-1.546,4.732,4.732,0,0,1,1.547-2.93,5.823,5.823,0,0,1,3.874-1.19h6.4a5.606,5.606,0,0,1,4.122,1.418,5.606,5.606,0,0,1,1.418,4.122v4c0,3.819-2.116,5.082-4.119,5.42-.338,2-1.6,4.12-5.421,4.12h-.4a.054.054,0,0,0-.04.02l-1.2,1.6a1.96,1.96,0,0,1-1.559.833A1.964,1.964,0,0,1,525.179-4449.3Zm-2.324-15.162c-2.289.2-3.354,1.467-3.354,4v4c0,1.709.3,2.769.942,3.33.57.5,1.5.71,3.1.71h.4a1.652,1.652,0,0,1,1.235.615s0,0,0,.005l1.2,1.6a.485.485,0,0,0,.36.232.484.484,0,0,0,.359-.231l1.2-1.6a1.556,1.556,0,0,1,1.241-.62h.4a4.408,4.408,0,0,0,2.9-.829,3.516,3.516,0,0,0,1.1-2.524l0-.03a5.207,5.207,0,0,0,.035-.656v-4a4.2,4.2,0,0,0-.979-3.062,4.2,4.2,0,0,0-3.061-.979h-6.4a5.248,5.248,0,0,0-.656.034A.218.218,0,0,1,522.854-4464.463Zm12.626,4v3.868a3.047,3.047,0,0,0,1.667-.963,4.395,4.395,0,0,0,.832-2.9v-4a4.2,4.2,0,0,0-.979-3.061,4.2,4.2,0,0,0-3.06-.979h-6.4c-2.2,0-3.444.8-3.866,2.5h6.265a5.606,5.606,0,0,1,4.122,1.418,5.606,5.606,0,0,1,1.419,4.122ZM530.245-4457a1,1,0,0,1-1-1,1,1,0,0,1,1-1h.01a1,1,0,0,1,1,1,1,1,0,0,1-1,1Zm-3.5,0a1,1,0,0,1-1-1,1,1,0,0,1,1-1h.009a1,1,0,0,1,1,1,1,1,0,0,1-1,1Zm-3.5,0a1,1,0,0,1-1-1,1,1,0,0,1,1-1h.009a1,1,0,0,1,1,1,1,1,0,0,1-1,1Z" transform="translate(103.26 4723.234)" fill="#a7a7a7"/>
    </g>
  </g>
</svg>
