<svg xmlns="http://www.w3.org/2000/svg" width="16.5" height="16.499" viewBox="0 0 16.5 16.499">
  <g id="Group_849" data-name="Group 849" transform="translate(-247.75 -303.75)">
    <path id="Union_17" data-name="Union 17" d="M-18820.75-3823.5a8.193,8.193,0,0,1-5.828-2.423,8.2,8.2,0,0,1-2.422-5.827,8.2,8.2,0,0,1,2.422-5.827,8.193,8.193,0,0,1,5.828-2.423,8.189,8.189,0,0,1,5.826,2.423,8.191,8.191,0,0,1,2.424,5.827,8.192,8.192,0,0,1-2.424,5.827A8.189,8.189,0,0,1-18820.75-3823.5Zm0-.6c-1.889,0,2.4-13.617,3.6-13.228s3.969,5.662,3.969,7.55-4.918,3.162-3.572,4.507-5.883.621-3.994.621,2.867-1.277,4.213-2.622,2.277-1.087,2.277-2.975-1.361.322-2.705-1.023S-18818.863-3824.1-18820.75-3824.1Z" transform="translate(19076.75 4143.75)"/>
    <path id="Vector" d="M2,4.745a.574.574,0,0,1-.407-.169L-.581,2.4a.576.576,0,0,1,0-.814.576.576,0,0,1,.814,0L2,3.355,5.942-.582a.576.576,0,0,1,.814,0,.576.576,0,0,1,0,.814L2.4,4.576A.574.574,0,0,1,2,4.745Z" transform="translate(252.912 310.002)" fill="#fff"/>
  </g>
</svg>
