<svg xmlns="http://www.w3.org/2000/svg" width="16.5" height="16.5" viewBox="0 0 16.5 16.5">
  <path id="Union_17" data-name="Union 17" d="M-18826.576-3825.922a8.189,8.189,0,0,1-2.424-5.828,8.188,8.188,0,0,1,2.424-5.827,8.187,8.187,0,0,1,5.826-2.423,8.191,8.191,0,0,1,5.828,2.423,8.194,8.194,0,0,1,2.422,5.827,8.2,8.2,0,0,1-2.422,5.828,8.193,8.193,0,0,1-5.828,2.422A8.188,8.188,0,0,1-18826.576-3825.922Zm.814-10.839a7.047,7.047,0,0,0-2.086,5.011,7.054,7.054,0,0,0,2.086,5.012,7.048,7.048,0,0,0,5.012,2.085,7.059,7.059,0,0,0,5.014-2.085,7.054,7.054,0,0,0,2.086-5.012,7.047,7.047,0,0,0-2.086-5.011,7.059,7.059,0,0,0-5.014-2.089A7.048,7.048,0,0,0-18825.762-3836.762Zm3.516,7.59-2.174-2.173a.581.581,0,0,1,0-.812.579.579,0,0,1,.816,0l1.766,1.762,3.943-3.935a.576.576,0,0,1,.814,0,.574.574,0,0,1,0,.813l-4.348,4.345a.579.579,0,0,1-.406.17A.58.58,0,0,1-18822.246-3829.171Z" transform="translate(18829 3840)"/>
</svg>
