<svg xmlns="http://www.w3.org/2000/svg" width="20" height="20" viewBox="0 0 20 20">
  <g id="vuesax_bulk_close-circle" data-name="vuesax/bulk/close-circle" transform="translate(-236 -252)">
    <g id="close-circle" transform="translate(236 252)">
      <g id="Group_535" data-name="Group 535">
        <path id="Vector" d="M18,9A9,9,0,1,1,9,0,9,9,0,0,1,18,9Z" transform="translate(1 1)" fill="#fff"/>
        <path id="Vector-2" data-name="Vector" d="M5.282,4.075,7.9,1.455A.854.854,0,0,0,6.695.248l-2.62,2.62L1.455.248A.854.854,0,0,0,.248,1.455l2.62,2.62L.248,6.695a.859.859,0,0,0,0,1.207.852.852,0,0,0,1.207,0l2.62-2.62L6.695,7.9A.852.852,0,0,0,7.9,7.9a.859.859,0,0,0,0-1.207Z" transform="translate(5.925 5.923)" fill="#959595"/>
      </g>
      <path id="Vector-3" data-name="Vector" d="M0,0H20V20H0Z" fill="none" opacity="0"/>
    </g>
  </g>
</svg>
