<svg xmlns="http://www.w3.org/2000/svg" width="24" height="24" viewBox="0 0 24 24">
  <g id="vuesax_bulk_people" data-name="vuesax/bulk/people" transform="translate(-620 -252)">
    <g id="people">
      <path id="Vector" d="M0,0H24V24H0Z" transform="translate(620 252)" fill="none" opacity="0"/>
      <path id="Union_23" data-name="Union 23" d="M-5772.04-4451.411a3.915,3.915,0,0,1-1.96-3.21,3.95,3.95,0,0,1,1.971-3.23,9.933,9.933,0,0,1,10.149,0,3.939,3.939,0,0,1,1.96,3.21,3.943,3.943,0,0,1-1.96,3.23,9.236,9.236,0,0,1-5.079,1.411A9.237,9.237,0,0,1-5772.04-4451.411Zm12.82-.839a3.568,3.568,0,0,0,1.22-2.32,3.94,3.94,0,0,0-1.67-3.381,8.268,8.268,0,0,0-2.3-1.259,7.818,7.818,0,0,1,6.7,1.169,3.041,3.041,0,0,1,1.3,2.63,3.043,3.043,0,0,1-1.741,2.379,6.986,6.986,0,0,1-3.321.783Zm-7.59-8.26h-.049a.828.828,0,0,0-.22,0,4.733,4.733,0,0,1-4.63-4.74,4.754,4.754,0,0,1,4.75-4.75,4.754,4.754,0,0,1,4.75,4.75,4.738,4.738,0,0,1-4.581,4.74Zm4.96-1.091a4.573,4.573,0,0,0,1.5-3.8,4.632,4.632,0,0,0-.77-2.179,3.588,3.588,0,0,1,1.27-.351,3.592,3.592,0,0,1,3.88,3.271,3.578,3.578,0,0,1-3.13,3.869h-.049a.472.472,0,0,0-.171.02c-.069,0-.137.005-.205.005A3.564,3.564,0,0,1-5761.85-4461.6Z" transform="translate(6395.979 4724)"/>
    </g>
  </g>
</svg>
