<svg xmlns="http://www.w3.org/2000/svg" width="24" height="24" viewBox="0 0 24 24">
  <g id="vuesax_bulk_people" data-name="vuesax/bulk/people" transform="translate(-620 -252)">
    <g id="people">
      <path id="Vector" d="M0,0H24V24H0Z" transform="translate(620 252)" fill="none" opacity="0"/>
      <path id="Union_20" data-name="Union 20" d="M792.148-4450.2a4.313,4.313,0,0,1-2.148-3.549,4.331,4.331,0,0,1,2.148-3.567,9.916,9.916,0,0,1,5.43-1.5,9.829,9.829,0,0,1,5.414,1.5,4.309,4.309,0,0,1,2.148,3.549,4.327,4.327,0,0,1-2.147,3.567,9.835,9.835,0,0,1-5.423,1.507A9.833,9.833,0,0,1,792.148-4450.2Zm.831-5.868a2.884,2.884,0,0,0-1.479,2.317,2.875,2.875,0,0,0,1.48,2.3,8.333,8.333,0,0,0,4.589,1.254,8.332,8.332,0,0,0,4.588-1.253,2.889,2.889,0,0,0,1.482-2.319,2.874,2.874,0,0,0-1.48-2.3,8.33,8.33,0,0,0-4.583-1.247A8.407,8.407,0,0,0,792.979-4456.065Zm13.032,4.968a.75.75,0,0,1,.581-.888,4.084,4.084,0,0,0,1.656-.73l.007-.006a1.947,1.947,0,0,0,.871-1.535,1.949,1.949,0,0,0-.871-1.535s0,0,0,0a4.219,4.219,0,0,0-1.64-.724.75.75,0,0,1-.567-.9.75.75,0,0,1,.9-.566,5.675,5.675,0,0,1,2.218.994,3.451,3.451,0,0,1,1.467,2.733,3.453,3.453,0,0,1-1.467,2.733,5.611,5.611,0,0,1-2.259,1.007.789.789,0,0,1-.154.015A.748.748,0,0,1,806.011-4451.1Zm-2.072-9.07a.751.751,0,0,1,.663-.828,1.963,1.963,0,0,1,.362-.007,2.743,2.743,0,0,0,2.6-2.749,2.753,2.753,0,0,0-2.75-2.75.75.75,0,0,1-.75-.75.75.75,0,0,1,.75-.75,4.255,4.255,0,0,1,4.249,4.25,4.229,4.229,0,0,1-1.194,2.954,4.232,4.232,0,0,1-2.9,1.3.714.714,0,0,1-.121,0,.348.348,0,0,0-.084,0,.693.693,0,0,1-.084,0A.751.751,0,0,1,803.939-4460.167Zm-6.374.538c-.025,0-.049,0-.074,0a1.011,1.011,0,0,0-.188,0,.838.838,0,0,1-.093,0,5.142,5.142,0,0,1-3.542-1.574,5.166,5.166,0,0,1-1.453-3.606A5.2,5.2,0,0,1,797.4-4470a5.2,5.2,0,0,1,5.191,5.189,5.176,5.176,0,0,1-5.006,5.181Zm.017-1.5a3.68,3.68,0,0,0,3.514-3.682,3.694,3.694,0,0,0-3.691-3.687,3.7,3.7,0,0,0-3.69,3.689,3.662,3.662,0,0,0,3.5,3.68c.061,0,.123-.007.184-.007S797.525-4461.135,797.582-4461.131Z" transform="translate(-168.313 4723.345)" fill="#a7a7a7"/>
    </g>
  </g>
</svg>
