<svg xmlns="http://www.w3.org/2000/svg" width="24" height="24" viewBox="0 0 24 24">
  <g id="vuesax_bulk_home" data-name="vuesax/bulk/home" transform="translate(-684 -700)">
    <g id="home" transform="translate(684 700)">
      <path id="Vector" d="M0,0H24V24H0Z" transform="translate(24 24) rotate(180)" fill="none" opacity="0"/>
      <path id="Vector-2" data-name="Vector" d="M8.073.636l-6.93,5.55A3.373,3.373,0,0,0,.033,9.1l1.33,7.96a3.19,3.19,0,0,0,3.04,2.57H15.6a3.209,3.209,0,0,0,3.04-2.57l1.33-7.96a3.429,3.429,0,0,0-1.11-2.91L11.933.646A3.225,3.225,0,0,0,8.073.636Z" transform="translate(1.997 2.184)"/>
      <path id="Vector-3" data-name="Vector" d="M5,2.5A2.5,2.5,0,1,1,2.5,0,2.5,2.5,0,0,1,5,2.5Z" transform="translate(9.5 10.5)" fill="#fff"/>
    </g>
  </g>
</svg>
