<svg xmlns="http://www.w3.org/2000/svg" width="24" height="24" viewBox="0 0 24 24">
  <g id="vuesax_bulk_home" data-name="vuesax/bulk/home" transform="translate(-684 -700)">
    <g id="home" transform="translate(684 700)">
      <path id="Vector" d="M0,0H24V24H0Z" transform="translate(24 24) rotate(180)" fill="none" opacity="0"/>
      <path id="Vector-2" data-name="Vector" d="M5,2.5A2.5,2.5,0,1,1,2.5,0,2.5,2.5,0,0,1,5,2.5Z" transform="translate(9.5 10.5)" fill="#fff"/>
      <path id="Union_24" data-name="Union 24" d="M-2609.847-4700.874a3.825,3.825,0,0,1-2.454-.93,3.82,3.82,0,0,1-1.326-2.265l-1.33-7.961a4.125,4.125,0,0,1,1.383-3.62l6.928-5.548a3.813,3.813,0,0,1,2.389-.8,3.843,3.843,0,0,1,2.409.812l6.929,5.539a4.188,4.188,0,0,1,1.382,3.617l-1.331,7.962a3.826,3.826,0,0,1-1.33,2.262,3.82,3.82,0,0,1-2.449.934Zm4.139-19.155-6.931,5.551a2.619,2.619,0,0,0-.839,2.2l1.331,7.963a2.451,2.451,0,0,0,2.3,1.945h11.2a2.453,2.453,0,0,0,2.3-1.947l1.33-7.958a2.715,2.715,0,0,0-.84-2.2l-6.928-5.539a2.388,2.388,0,0,0-1.472-.481A2.351,2.351,0,0,0-2605.707-4720.029Zm-1.789,9.6a3.253,3.253,0,0,1,3.249-3.25,3.254,3.254,0,0,1,3.251,3.25,3.255,3.255,0,0,1-3.251,3.25A3.254,3.254,0,0,1-2607.5-4710.434Zm1.5,0a1.753,1.753,0,0,0,1.75,1.75,1.753,1.753,0,0,0,1.75-1.75,1.753,1.753,0,0,0-1.75-1.75A1.753,1.753,0,0,0-2606-4710.434Z" transform="translate(2616.249 4723.438)" fill="#a7a7a7"/>
    </g>
  </g>
</svg>
