<svg xmlns="http://www.w3.org/2000/svg" width="12.6" height="12.6" viewBox="0 0 12.6 12.6">
  <path id="error_FILL0_wght500_GRAD0_opsz48" d="M10,13.2a.583.583,0,0,0,.59-.59.611.611,0,0,0-.163-.427A.551.551,0,0,0,10,12a.557.557,0,0,0-.419.178.6.6,0,0,0-.171.427.584.584,0,0,0,.163.419A.563.563,0,0,0,10,13.2Zm-.481-2.467h1.055V6.741H9.519ZM10,16.3a6.11,6.11,0,0,1-2.452-.5A6.325,6.325,0,0,1,4.2,12.452a6.339,6.339,0,0,1,0-4.919,6.29,6.29,0,0,1,1.35-1.994,6.451,6.451,0,0,1,2-1.342,6.339,6.339,0,0,1,4.919,0A6.268,6.268,0,0,1,15.8,7.533a6.339,6.339,0,0,1,0,4.919,6.451,6.451,0,0,1-1.342,2,6.29,6.29,0,0,1-1.994,1.35A6.149,6.149,0,0,1,10,16.3Zm.016-1.055a5.028,5.028,0,0,0,3.7-1.536,5.085,5.085,0,0,0,1.528-3.724,5.041,5.041,0,0,0-1.528-3.7A5.059,5.059,0,0,0,10,4.755,5.066,5.066,0,0,0,6.291,6.284,5.046,5.046,0,0,0,4.755,10a5.053,5.053,0,0,0,1.536,3.709,5.072,5.072,0,0,0,3.724,1.536ZM10,10Z" transform="translate(-3.7 -3.7)" fill="#707070"/>
</svg>
