<svg xmlns="http://www.w3.org/2000/svg" width="16" height="16" viewBox="0 0 16 16">
  <g id="vuesax_linear_location" data-name="vuesax/linear/location" transform="translate(-428 -188)">
    <g id="location" transform="translate(428 188)">
      <path id="Union_14" data-name="Union 14" d="M3.9,14.761A14.2,14.2,0,0,1,.921,10.793,8.246,8.246,0,0,1,.195,5.266a6.56,6.56,0,0,1,2.58-3.954A7.254,7.254,0,0,1,6.975,0,7.26,7.26,0,0,1,11.18,1.314a6.563,6.563,0,0,1,2.579,3.959,8.236,8.236,0,0,1-.727,5.524,14.177,14.177,0,0,1-2.989,3.964,4.424,4.424,0,0,1-6.14,0ZM3.425,2.219A5.462,5.462,0,0,0,1.283,5.513c-.439,1.937-.206,4.975,3.394,8.444a3.307,3.307,0,0,0,4.592,0c1.991-1.912,4.2-4.927,3.4-8.438a5.464,5.464,0,0,0-2.141-3.3,6.135,6.135,0,0,0-3.554-1.1A6.129,6.129,0,0,0,3.425,2.219ZM4.1,6.743a2.88,2.88,0,1,1,2.88,2.881A2.884,2.884,0,0,1,4.1,6.743Zm1.116,0A1.764,1.764,0,1,0,6.977,4.979,1.766,1.766,0,0,0,5.213,6.743Z" transform="translate(1.023 0)"/>
      <path id="Vector" d="M0,0H16V16H0Z" transform="translate(16 16) rotate(180)" fill="none" opacity="0"/>
    </g>
  </g>
</svg>
