<svg id="j-crew-logo-vector" xmlns="http://www.w3.org/2000/svg" width="137.494" height="38.789" viewBox="0 0 137.494 38.789">
  <g id="layer1" transform="translate(0 0)">
    <path id="Path_283" data-name="Path 283" d="M0,37.989c0-1.185.326-2.163.682-2.163a3.074,3.074,0,0,1,1.126.77l.83.8L3.763,36.8A3.291,3.291,0,0,0,5.482,34.61c.563-1.511.593-2.371.682-16.594L6.252,2.993l-.682-.77A5.232,5.232,0,0,0,3.7,1.007C2.874.741,2.667.563,2.993.415c.741-.3,7.675-.03,7.764.3.03.178-.237.326-.622.385a1.237,1.237,0,0,0-.978.889C9.008,2.43,8.86,8.8,8.8,16.12c-.119,14.164-.267,15.735-1.659,18.461-1.215,2.371-3.852,4.208-6.075,4.208C.089,38.789,0,38.7,0,37.989Zm16.89-11.26c0-.178-.474-.622-1.037-1.007a3.274,3.274,0,0,1-1.037-.948A5.212,5.212,0,0,1,15.853,23.5l1.067-1.037.889.978.919.948-.533.978C17.631,26.432,16.89,27.2,16.89,26.728ZM124.278,25.01a11.1,11.1,0,0,1-.711-2.015,1.066,1.066,0,0,0-.267-.652,18.224,18.224,0,0,1-1.215-2.667c-1.541-3.734-2.134-4.949-2.371-4.682a24.146,24.146,0,0,0-2.222,4.83c-.474,1.215-1.067,2.756-1.333,3.408-.3.652-.711,1.6-.919,2.134-.3.711-.474.859-.77.622a1.142,1.142,0,0,1-.385-.711,2.566,2.566,0,0,0-.267-.948c-.533-.948-1.719-3.763-3.289-7.764-2.045-5.245-1.926-4.949-2.756-6.815-.385-.889-1.007-2.43-1.393-3.408a31.067,31.067,0,0,0-1.452-3.319c-.711-1.482-1.037-1.719-2.756-2.282C100.809.326,101.964.03,105.194,0c2.341,0,3.556.089,3.556.3,0,.178-.267.385-.593.474-.474.119-.593.415-.593,1.3a2.156,2.156,0,0,0,.3,1.3c.178.089.3.474.3.859a2.02,2.02,0,0,0,.237.948,11.653,11.653,0,0,1,.948,2.045c.356.978.978,2.459,1.363,3.319a8.6,8.6,0,0,1,.711,1.985.751.751,0,0,0,.267.593,5.894,5.894,0,0,1,.741,1.571,35.789,35.789,0,0,0,2.934,6.223c.326.444.8.237.8-.385a13.2,13.2,0,0,1,.919-2.4c2.311-5.1,2.311-5.008.8-8.682-.178-.415-.415-1.007-.533-1.333-.326-.889-.741-1.808-1.956-4.5-1.126-2.459-1.57-2.874-3.348-3.022-.267-.03-.326-.119-.148-.3a14.362,14.362,0,0,1,3.793-.119l3.556.178-.83.652-.859.682.8,2.045a17.2,17.2,0,0,1,.77,2.341c0,.622,1.215,2.815,1.511,2.726.267-.089.741-.8,1.511-2.371a3.07,3.07,0,0,0,.237-.889,3.857,3.857,0,0,1,.444-1.215,5.471,5.471,0,0,0,.5-1.689c.059-.889-.741-2.074-1.452-2.074a.364.364,0,0,1-.385-.326c0-.178.207-.237.474-.148a16.389,16.389,0,0,0,2.845.178h2.4l-.948.682c-1.037.711-1.837,2.074-3.171,5.393a13.566,13.566,0,0,1-1.067,2.341,2.02,2.02,0,0,0-.237.948,1.169,1.169,0,0,1-.3.859c-.385.237-.237.711,1.1,4,3.022,7.319,3.26,7.675,4.208,6.075a5.689,5.689,0,0,0,.622-1.393,15.951,15.951,0,0,1,.919-2.282c.978-2.163,1.422-3.141,1.748-4.03,1.333-3.585,2.578-6.786,3.171-8.06,1.067-2.4.919-3.022-.889-3.793a3.91,3.91,0,0,1-1.1-.563,21.534,21.534,0,0,1,3.111-.119,9.323,9.323,0,0,1,3.111.207c0,.119-.356.5-.8.83-1.008.741-1.9,2.489-4.534,8.979-.711,1.719-1.659,3.971-2.134,5.037s-1.037,2.341-1.245,2.815c-.207.5-.593,1.363-.83,1.926-.267.563-.978,2.282-1.571,3.793a24.518,24.518,0,0,1-1.244,2.726,9.622,9.622,0,0,1-.859-1.63Zm-90.526.682c-4.445-1.571-6.993-4.83-7.734-9.986-.563-3.734.03-6.4,2.282-10.46a13.957,13.957,0,0,1,4.8-4.089A15.427,15.427,0,0,0,34.936.474C35.677.089,40.092,0,41.722.326a18.281,18.281,0,0,1,4.563,1.6,3.7,3.7,0,0,0,1.808.533c.326-.119.444.059.444.533a24.35,24.35,0,0,0,.178,2.756c.178,1.9.148,2.015-.267,1.511A2.207,2.207,0,0,1,48,6.312c0-.682-3.26-3.763-4.682-4.415a9.188,9.188,0,0,0-6.489-.889c-4.119.948-6.164,2.7-7.319,6.134a15.987,15.987,0,0,0,1.452,13.72c2.045,3.082,4.741,4.445,8.742,4.415a9.309,9.309,0,0,0,8.179-4.03c1.185-1.6,1.511-1.659,1.037-.178a17.893,17.893,0,0,0-.474,1.778,2.1,2.1,0,0,1-.978,1.245c-2.845,1.571-4.3,1.926-8.653,2.134C36.122,26.343,35.44,26.284,33.751,25.691Zm21.365.415c0-.148.326-.385.741-.474a2.273,2.273,0,0,0,1.215-1.156c.444-.83.5-2.015.5-9.1-.03-11.7-.059-12.446-.741-13.394a1.819,1.819,0,0,0-1.215-.83c-.77,0-1.57-.444-1.215-.682C54.553.385,57.4.356,60.746.385c7.2.059,7.823.237,9.6,2.637,1.126,1.541,1.126,1.571.978,3.7a7.671,7.671,0,0,1-.533,2.637,7.411,7.411,0,0,0-.711,1.067,5.462,5.462,0,0,1-1.571,1.482c-.682.474-1.245,1.007-1.245,1.185a80.128,80.128,0,0,0,5.423,8.445c1.274,1.867,2.9,3.5,3.734,3.763.859.267.652.859-.356.978-2.4.3-4.978-1.659-6.934-5.3a12.361,12.361,0,0,0-1.067-1.689,7.291,7.291,0,0,1-.83-1.274c-1.1-2.015-2.252-3.526-2.963-3.823a6.606,6.606,0,0,0-2.371-.237l-1.6.089L60.124,17.9c-.178,3.7.089,5.689.859,6.875a4.193,4.193,0,0,0,1.808.77c2.045.533,1.63.77-.859.5a20.557,20.557,0,0,0-5.689.178c-.652.089-1.126.059-1.126-.119Zm10.845-13.72a4.542,4.542,0,0,0,2.963-3.674A8.7,8.7,0,0,0,67.8,3.526c-1.3-1.689-5.512-2.874-6.9-1.956l-.741.5.059,5.215.089,5.245.741.178A14.2,14.2,0,0,0,65.961,12.386Zm15.527,13.3c0-.148.326-.237.711-.237a1.577,1.577,0,0,0,1.245-.8c.533-.77.563-1.541.5-11.112-.03-11.29-.089-11.586-1.778-12.386C81.637.919,81.192.622,81.192.5A68.883,68.883,0,0,1,89.519.267h8.327l-.237.978a10.076,10.076,0,0,0-.178,2.222c0,.682-.119,1.245-.267,1.245S96.9,4.386,96.9,4a2.829,2.829,0,0,0-2.134-2.4,30.509,30.509,0,0,0-4.178-.207c-2.459,0-3.348.119-3.674.444-.356.326-.444,1.393-.474,4.86-.059,5.66-.178,5.482,3.615,5.393,3.437-.089,4.83-.5,5.186-1.571.533-1.422.77-.8.77,1.867,0,2.756-.326,3.586-.948,2.252a2.193,2.193,0,0,0-1.422-1.067c-1.067-.326-6.608-.267-6.934.059s-.267,8.979.059,9.808a1.963,1.963,0,0,0,1.482,1.126,4.1,4.1,0,0,0,1.571.148,14.867,14.867,0,0,1,1.9-.267c3.645-.326,5.186-.83,6.7-2.193.8-.711,1.452-1.156,1.452-.978,0,.741-1.689,3.378-2.519,4-.83.563-1.156.622-4.445.474a78.307,78.307,0,0,0-8.8.03,8.326,8.326,0,0,1-2.608-.089Z" transform="translate(0 0)" fill="#050708"/>
  </g>
  <path id="layer2" d="M203.2,13.766a26.147,26.147,0,0,1-.2-4.574V4.77l.661-.407c.559-.381.864-.407,2.185-.152,3.024.559,4.625,2.363,4.625,5.26a4.238,4.238,0,0,1-1.7,3.786c-.584.432-1.169.559-3.049.61A9.266,9.266,0,0,1,203.2,13.766Z" transform="translate(-142.267 -3.016)" fill="#fff"/>
</svg>
