<svg viewBox="0 0 179 42" id="logo" xmlns="http://www.w3.org/2000/svg"><path fill-rule="evenodd" d="M177.703 24.912c-2.117 3.539-5.643 6.369-9.433 8.292-1.018.487-2.885 1.263-4.564 1.373-1.676.109-3.953.132-5.378-1.596-.618-.749-1.043-3.239-2.038-3.199-.594.02-1.513 1.238-2.31 1.814-2.247 1.686-5.402 3.197-8.846 1.784-1.055-.449-1.814-1.119-2.382-2.051-.361-.551-.545-1.536-1.275-1.788-.71-.245-2.436 1.263-3.051 1.642-1.461.958-3.581 1.485-5.526 1.843-3.945.665-8.95-1.251-7.748-5.345.446-1.447 1.284-2.681 2.413-3.481.684-.512 1.627-.902 1.989-1.746.159-.631-.183-1.067-.599-1.26-1.509-.61-2.888-1.131-4.316-1.875-.626-.327-1.752-1.085-1.99-1.027-.432.087-1.184 2.716-1.792 4.004-1.369 3.043-3.344 5.673-6.018 7.541-1.454 1.036-3.624 2.637-5.836 1.108-1.357-.955-1.203-2.612-1.782-3.073-.165-.076-.366-.076-.539-.046-.497.143-.821.797-1.228 1.228-.905.96-2.272 1.356-3.224 1.582-.588.139-1.548.127-2.174-.041-.632-.167-1.352-1.031-2.236-.502-.945.768-1.582 1.218-2.831 2.09-2.389 1.448-7.687 3.149-10.821 1.197-1.412-.879-1.552-2.4-1.78-2.515-.417-.098-1.216.588-1.894 1.016-.843.501-2.506 1.171-3.942.905-1.242-.207-2.795-.497-3.495-1.284-.406-.425-.732-1.78-1.62-1.665-1.296.159-1.908 1.308-2.825 1.898-1.493.969-3.5 1.195-5.55.497-.68-.233-1.407-.707-1.763-1.251-.272-.422-.504-1.311-.927-1.529-.442-.227-1.231.278-1.432.425-.988.733-1.369 1.618-2.918 1.904-1.399.245-2.847-.488-3.584-1.006l-1.034-.814c-1.108-.541-2.448.802-3.186 1.199-1.622.923-4.256.025-5.015-1.038-.471-.595-.989-1.461-1.235-2.285-1.628-5.461 2.835-9.411 6.069-11.268 1.27-.664 3.754-1.809 5.745-1.047.745.317 1.038 1.059 1.537 1.346a.532.532 0 00.312-.006c1.324-.406 1.458-2.163 3.48-1.243.366.185.777.288.986.56.671 1.005-.613 2.311-1.076 2.774-1.031 1.366-2.063 2.732-3.089 4.102-.632.793-1.524 1.629-1.972 2.582-.648 1.398.189 2.998 1.522 3.332 1.245.36 2.284-.495 2.958-.953 1.069-.698 2.238-1.401 3.003-2.379.639-.927 1.287-1.919 1.928-2.869 1.611-2.161 3.874-4.141 6.408-5.407.804-.407 2.018-1.04 3.383-.887.687.076 1.153.175 1.953.483.393.166.977.569 1.171.46.682-.494 1.167-1.999 1.788-3.042 1.409-2.65 2.836-5.299 4.268-7.936 1.242-2.02 2.377-4.673 3.525-4.601 2.697.253-.54 5.593-1.077 6.468-.728 1.229-1.257 2.417-1.958 3.733-1.934 3.58-3.744 7.297-5.609 10.918-.595 1.163-2.661 4.059-2.152 5.803.557 1.937 3.116 1.362 4.665.733 2.21-.956 3.695-2.498 5.53-3.813 1.37-.985 3.052-1.884 4.221-3.105-.012-.197-.05-.214-.149-.374-2.408-.793-3.493-3.276-2.317-5.944.922-2.056 2.949-3.449 5.41-3.955 1.454-.312 3.112-.54 4.229.231.062.043.125.08.141.174.136 2.055-4.626 2.399-6.063 3.472-.837.656-2.809 3.684-.722 4.49 1.306.513 3.979.175 4.436.765.288.372.187.62.147.767-.611 1.289-2.019 1.289-3.376 1.855-1.781.821-3.83 1.877-4.972 3.262-.711.82-1.838 2.354-.789 3.585 1.337 1.614 6.264.079 7.593-.502 1.14-.455 3.798-1.758 4.396-2.575.563-.756.513-2.096.864-3.057 1.103-2.766 2.315-5.496 3.477-8.15.561-1.296 1.544-5.211 3.685-4.28 1.28.534 1.105 2.086.574 3.28-1.51 2.714-3.014 5.437-4.516 8.086-.444.908-1.416 3.284-.172 3.851 1.425.729 3.187-.472 3.925-1.16 1.356-1.161 2.036-2.647 2.963-4.195a332.443 332.443 0 012.955-5.297c.53-.966 1.874-4.094 3.554-3.671 1.219.287 1.346 1.53.831 2.672-1.243 2.809-3.116 5.327-4.255 8.392-.356.966-1.212 3.644.177 4.177 1.567.541 3.3-1.545 3.848-2.286 1.644-2.006 3.023-4.06 4.041-6.552.321-.913.562-1.651.804-2.611.118-.652.242-1.585.418-1.84.256-.38 1.305-.397 1.703-.13.296.235.341.737.543 1.057.308.482 2.053 1.889 3.053 1.649 1.175-.262 1.548-2.043 2-2.973.817-1.756 3.503-4.535 6.492-3.987 1.711.284 4.313 1.357 1.988 2.867-.9.566-1.922.428-3.031.852-1.727.548-2.955 1.352-3.818 2.804-.204.313-.521.942-.385 1.629.608 3.046 6.078-.2 6.675.526 1.755 1.815-.657 2.441-1.998 3.144-1.723 1.006-7.302 4.26-4.934 7.17.73.953 2.783.826 4.203.514 2.578-.526 5.112-1.804 6.939-3.192 2.635-2.001 2.807-7.003 4.057-10.158 1.711-4.397 4.286-7.529 7.076-10.771 1.356-1.561 5.054-4.749 7.86-2.671 2.303 1.718.069 5.728-.817 7.417-2.232 4.184-5.444 7.317-8.336 10.841-1.123 1.399-2.746 2.363-3.834 3.864-1.494 2.097-.464 3.999 1.917 4.485 2.539.602 5.516-.997 6.769-1.961 2.336-1.886 2.737-6.124 4.029-9.067 1.762-3.996 4.596-7.391 7.499-10.304 1.511-1.56 3.252-3.098 5.489-3.941.975-.374 2.558-.361 3.348.175 1.009.711 1.427 3.505.772 5.002a16.21 16.21 0 01-1.788 2.622c-2.279 3.018-4.51 5.597-6.924 8.534-1.168 1.225-2.418 2.456-3.651 3.697-.761.937-3.426 3.034-2.672 4.829.916 2.254 5.166.721 6.645.046 3.267-1.435 6.048-3.205 7.754-6.146.395-.733.705-1.437 1.052-2.41.183-.559.304-1.313.448-1.862.324-.667 1.451-.99 1.963-.285.893 1.279-.5 5.04-1.007 5.861zM53.012 19.336c-.202-.131-.403-.231-.986-.221-.592-.02-1.217.234-1.825.487-1.94.794-3.64 2.551-4.628 4.406-.446.893-1.051 2.673-.132 3.507.719.69 2.356.238 3.096-.085 2.191-1.002 3.845-2.544 4.797-4.757.373-.826.531-2.82-.322-3.337zm19.108.337c-.946.056-1.645.341-2.466.717-2.264 1.221-3.871 2.952-5.293 4.956-.635.899-1.718 2.841-.409 3.865 1.067.845 2.745.927 4.089.282 2.235-1.12 4.647-4.107 5.778-6.338 1.036-2.013.669-3.27-1.699-3.482zm73.851 2.338c.1.094.225.14.395.094 1.3-.514 2.207-1.727 2.99-2.67.702-.838 1.499-1.686 2.184-2.576 1.517-2.08 2.784-4.189 4.142-6.249.704-1.096 2.548-4.424-.41-4.56-.619.041-.976.47-1.455.883-.62.581-1.18 1.308-1.689 1.957-.624.786-1.235 1.801-1.844 2.57-1.332 2.034-1.902 3.389-2.829 5.201-.691 1.343-2.061 3.384-1.484 5.35zm15.06 1.474l.089.048c1.441-.003 3.131-1.909 3.848-2.766.65-.705 1.406-1.528 2.129-2.349 1.402-1.675 2.424-3.162 3.759-4.954.718-.959 1.412-1.905 2.148-2.807.71-1.062 1.362-3.847-.808-3.72-.464.012-1.466.792-2.156 1.334-3.172 2.389-5.199 6.036-7.288 9.49-.817 1.369-2.322 3.622-1.721 5.724zm-122.675 0c-1.09 2.66-2.986 7.604-.788 11.322.965 1.634 2.677 2.939 3.661 4.362.781 1.233-.001 2.587-1.17 2.82-1.344.267-4.15-3.139-4.792-3.892-1.328-1.532-2.519-3.233-3.232-5.525-.744-2.405.149-5.219.86-6.988 1.062-2.639 2.093-4.833 3.181-7.271 1.006-1.93 1.952-3.826 2.953-5.722 1.042-1.823 2.033-3.279 3.139-5.389.267-.51.506-1.516-.049-1.868-.612-.391-1.455.081-1.828.352-1.511 1.094-2.958 2.327-4.446 3.405-3.013 2.206-4.016 4.134-6.007 7.237-2.05 3.319-3.903 6.751-5.876 10.111-.8 1.402-2.473 6.301-4.704 5.621-2.625-.845.136-5.117.764-6.423 2.178-4.455 4.229-9.065 6.726-13.253.731-1.243 2.836-4.515 2.016-5.447-.598-.442-1.483-.319-2.106.044-1.702.963-3.303 2.012-4.89 3.087-2.84 1.94-3.415 4.194-5.155 7.168-1.895 3.5-3.768 7.019-5.67 10.516-.888 1.694-2.657 6.1-5.441 5.274-2.964-.878-.17-4.976.668-6.34 2.632-4.26 4.698-9.057 7.308-13.306.641-1.078 2.963-4.488 3.004-5.696.035-.272-.127-.35-.226-.4-.771-.331-2.7 1.032-3.54 1.593-2.721 1.681-5.443 3.381-8.162 5.023-.855.575-3.301 2.242-4.298.811-1.263-1.892 2.606-3.557 3.587-4.196 3.971-2.634 7.949-5.251 11.922-7.884 1.036-.714 3.056-2.719 4.888-2.299 3.568.808-1.342 6.255 1.073 7.085.953.297 2.322-1.625 3.093-2.393 1.507-1.487 2.952-3.153 4.796-4.3.951-.495 1.333-.689 1.806-.729 2.589-.129 2.928 1.408 2.455 3.703-.187.883-.737 2.651.358 2.741.587.026 1.639-1.326 2.409-2.011 2.267-2.016 6.233-5.498 9.735-2.807 1.597 1.218.361 4.615-.309 6.232-2.25 5.419-5.477 10.062-7.713 15.632z"></path></svg>