<svg xmlns="http://www.w3.org/2000/svg" xmlns:xlink="http://www.w3.org/1999/xlink" width="233" height="63" viewBox="0 0 233 63"><defs><mask id="a" x="0" y="0" width="233" height="63" maskUnits="userSpaceOnUse"><polygon points="0 0 233 0 233 63 0 63 0 0" fill="#fff" fill-rule="evenodd"/></mask></defs><path d="M97.16,34.44c-1.42,2.84-4.43,6.65-7.22,8.08a4.91,4.91,0,0,1-5.11-.36c-1.64-1.3-.28-3.78.51-4.93A19.61,19.61,0,0,1,92,30.91,8,8,0,0,1,95,30c2.95.27,3.41,1.87,2.12,4.44m-25.6-.62a11.5,11.5,0,0,1-6,6.07c-.93.41-3,1-3.87.11-1.15-1.06-.4-3.33.16-4.47a12.39,12.39,0,0,1,5.78-5.62,5.58,5.58,0,0,1,2.29-.62,1.78,1.78,0,0,1,1.23.28c1.06.66.87,3.2.4,4.25m117.61-7.66a60.09,60.09,0,0,1,3.54-6.64c.76-1,1.52-2.27,2.3-3.27a22.69,22.69,0,0,1,2.11-2.5c.6-.53,1-1.07,1.82-1.13,3.7.18,1.39,4.42.51,5.82-1.69,2.63-3.28,5.32-5.17,8-.86,1.13-1.85,2.22-2.73,3.28s-2.11,2.75-3.74,3.41a.47.47,0,0,1-.49-.12c-.72-2.51,1-5.11,1.85-6.82m19.12,1.4c2.61-4.41,5.14-9.06,9.11-12.1.86-.69,2.11-1.69,2.69-1.7,2.71-.17,1.9,3.39,1,4.74-.92,1.15-1.79,2.36-2.68,3.58-1.67,2.29-2.95,4.18-4.7,6.32-.91,1.05-1.85,2.09-2.66,3-.9,1.1-3,3.53-4.81,3.53l-.11-.06c-.75-2.68,1.13-5.55,2.15-7.3m19.94,1.65a1.49,1.49,0,0,0-2.45.36c-.18.7-.33,1.66-.56,2.37A21.56,21.56,0,0,1,223.9,35c-2.13,3.75-5.6,6-9.69,7.83-1.85.86-7.16,2.82-8.3-.05-.94-2.29,2.39-5,3.34-6.16,1.54-1.58,3.1-3.15,4.56-4.72,3-3.74,5.8-7,8.65-10.88a20.55,20.55,0,0,0,2.24-3.35c.82-1.9.29-5.47-1-6.37a5.2,5.2,0,0,0-4.18-.23,19.2,19.2,0,0,0-6.86,5,44.4,44.4,0,0,0-9.37,13.14c-1.61,3.75-2.12,9.16-5,11.56-1.56,1.23-5.28,3.27-8.45,2.5-3-.62-4.27-3-2.4-5.72,1.36-1.91,3.39-3.14,4.79-4.92,3.61-4.5,7.63-8.49,10.42-13.83,1.11-2.15,3.9-7.27,1-9.46-3.51-2.65-8.13,1.42-9.82,3.41-3.49,4.13-6.71,8.13-8.85,13.73-1.56,4-1.77,10.41-5.06,13a22.2,22.2,0,0,1-8.68,4.07c-1.77.4-4.34.56-5.25-.66-3-3.71,4-7.86,6.17-9.14,1.67-.9,4.69-1.69,2.49-4-.74-.93-7.58,3.22-8.34-.67a2.93,2.93,0,0,1,.49-2.08,7.82,7.82,0,0,1,4.76-3.57c1.39-.54,2.67-.37,3.79-1.09,2.91-1.93-.34-3.29-2.48-3.66-3.74-.7-7.09,2.85-8.11,5.09-.57,1.18-1,3.46-2.5,3.79-1.25.31-3.43-1.49-3.82-2.1-.25-.41-.31-1.05-.68-1.35s-1.8-.32-2.12.17a10.4,10.4,0,0,0-.53,2.34c-.3,1.23-.6,2.17-1,3.33a32.36,32.36,0,0,1-5.05,8.36c-.69.94-2.85,3.6-4.81,2.91-1.74-.68-.67-4.09-.22-5.33,1.42-3.9,3.76-7.12,5.32-10.7.64-1.45.48-3-1-3.4-2.1-.54-3.78,3.44-4.44,4.68-1.24,2.22-2.47,4.46-3.7,6.75-1.15,2-2,3.87-3.7,5.35-.92.88-3.12,2.41-4.9,1.48-1.56-.72-.34-3.75.21-4.91,1.88-3.38,3.76-6.85,5.65-10.31.66-1.52.88-3.5-.72-4.18-2.68-1.19-3.91,3.8-4.61,5.45-1.45,3.39-3,6.87-4.34,10.4-.44,1.22-.38,2.93-1.08,3.9s-4.07,2.7-5.49,3.28c-1.67.74-7.82,2.7-9.49.64-1.31-1.57.1-3.53,1-4.57,1.43-1.77,4-3.11,6.22-4.16,1.69-.72,3.45-.72,4.21-2.37a.93.93,0,0,0-.18-1c-.57-.75-3.91-.32-5.54-1-2.61-1-.15-4.89.9-5.73,1.79-1.37,7.75-1.8,7.58-4.43,0-.12-.1-.16-.18-.22-1.39-1-3.47-.69-5.28-.29a9.15,9.15,0,0,0-6.76,5c-1.47,3.4-.12,6.57,2.89,7.58a.84.84,0,0,1,.19.48c-1.46,1.56-3.57,2.7-5.28,4-2.29,1.68-4.15,3.64-6.91,4.86-1.93.8-5.13,1.54-5.83-.93-.63-2.23,2-5.92,2.69-7.4,2.33-4.62,4.59-9.36,7-13.93.88-1.68,1.54-3.19,2.45-4.76.67-1.11,4.71-7.92,1.34-8.25-1.43-.09-2.85,3.3-4.4,5.87q-2.69,5-5.34,10.12c-.77,1.33-1.38,3.25-2.23,3.88-.24.14-1-.37-1.46-.59a8.54,8.54,0,0,0-2.44-.61,7.38,7.38,0,0,0-4.23,1.13,23.26,23.26,0,0,0-8,6.89c-.8,1.22-1.61,2.48-2.41,3.66a14.89,14.89,0,0,1-3.75,3c-.84.58-2.14,1.67-3.7,1.21a3.09,3.09,0,0,1-1.9-4.25,18.61,18.61,0,0,1,2.47-3.29q1.92-2.62,3.86-5.23c.57-.59,2.18-2.26,1.34-3.54a3.47,3.47,0,0,0-1.23-.71c-2.53-1.18-2.7,1.07-4.35,1.58a.58.58,0,0,1-.39,0c-.62-.36-1-1.31-1.92-1.72-2.49-1-5.59.49-7.18,1.34-4,2.37-9.62,7.41-7.58,14.37a9.18,9.18,0,0,0,1.54,2.91c1,1.36,4.24,2.5,6.27,1.33.92-.51,2.59-2.22,4-1.53l1.29,1a6.41,6.41,0,0,0,4.48,1.28c1.93-.36,2.41-1.49,3.64-2.43.26-.19,1.24-.83,1.8-.54s.81,1.41,1.15,2A4.53,4.53,0,0,0,83.72,46a7.78,7.78,0,0,0,6.93-.63c1.15-.75,1.91-2.22,3.53-2.42,1.11-.15,1.52,1.58,2,2.12.87,1,2.81,1.38,4.36,1.64a7.77,7.77,0,0,0,4.93-1.15c.85-.55,1.84-1.42,2.37-1.3.28.15.46,2.09,2.22,3.21C114,50,120.63,47.8,123.61,46c1.56-1.11,2.36-1.68,3.54-2.66,1.11-.68,2,.42,2.79.64a6.42,6.42,0,0,0,2.72,0,8,8,0,0,0,4-2c.51-.55.91-1.38,1.53-1.56a1.21,1.21,0,0,1,.68.05c.72.59.53,2.71,2.22,3.92,2.77,2,5.48-.09,7.3-1.41a22.92,22.92,0,0,0,7.52-9.62c.76-1.64,1.7-5,2.24-5.1a12,12,0,0,1,2.48,1.31c1.79.95,3.51,1.61,5.4,2.39a1.34,1.34,0,0,1,.75,1.6c-.46,1.08-1.64,1.58-2.49,2.23a8.47,8.47,0,0,0-3,4.44c-1.5,5.22,4.76,7.67,9.69,6.82a19.48,19.48,0,0,0,6.9-2.35c.77-.49,2.93-2.41,3.81-2.1s1.15,1.58,1.6,2.28a6.18,6.18,0,0,0,3,2.62c4.31,1.8,8.25-.13,11.06-2.28,1-.73,2.14-2.28,2.88-2.31,1.25,0,1.78,3.12,2.55,4.08,1.78,2.2,4.63,2.17,6.72,2a16.45,16.45,0,0,0,5.7-1.75A29,29,0,0,0,227,36.68c.63-1,2.38-5.84,1.26-7.47" fill="#e26854" fill-rule="evenodd"/><g mask="url(#a)"><path d="M193,38.16a22.78,22.78,0,0,0,2.64-2.71l.8-1a6.46,6.46,0,0,1-1.25,2.46A9.69,9.69,0,0,1,193,38.16m22.4-1.51L217,35l.1-.11v0l0,0,.09-.11c.79-1,1.55-1.92,2.31-2.84l.11-.14.71-.88a15,15,0,0,1-.75,1.7,11.81,11.81,0,0,1-4.2,4.1m-110-.48v0c.82-1.63,1.65-3.29,2.44-4.9l.11-.22.44-.89a10,10,0,0,0,.67,2.11,8.17,8.17,0,0,0,.38.79c-.34.23-.63.43-.9.63-.79.58-1.5,1.17-2.19,1.73l-1,.78m19.48-8.38c.48-.2,1-.42,1.47-.68-.2.45-.38.88-.57,1.32a4.87,4.87,0,0,0-.9-.64M44.3,0l-.65,0h-.11a9.93,9.93,0,0,0-4,1.46l-.14.07h0l-.12.08A22.38,22.38,0,0,0,36.12,4L36,3.73A6.74,6.74,0,0,0,31.53.56a7.38,7.38,0,0,0-1.7-.19c-3.3,0-5.94,2.11-7.52,3.37l-.08.06-.1.08c-.16.13-.3.25-.38.3l-5.94,4-.47.32-.94.63L6.89,14.21l-.32.19-.09,0-.12.08C4.36,15.65,1,17.56.18,21a6.45,6.45,0,0,0,1,5.14,6.32,6.32,0,0,0,5.29,2.77c2.46,0,4.65-1.27,6.47-2.51l1.13-.7c-.4.79-.8,1.56-1.18,2.33C11.42,30.82,10,33.71,8.39,36.3l-.21.34c-1.41,2.3-4,6.58-2.52,10.59a6.78,6.78,0,0,0,4.54,4.12,7.52,7.52,0,0,0,2.2.33c5.54,0,8.28-5.66,9.75-8.7l0-.08.27-.56c.15-.27.29-.54.43-.81a7.88,7.88,0,0,0,.29,4.77,6.59,6.59,0,0,0,6.08,4.1c5,0,7.35-5.14,8.9-8.54.17-.38.42-.93.5-1.06.84-1.46,1.66-2.94,2.46-4.37-1.55,4.27-1.85,8-.89,11.22a24,24,0,0,0,4.93,8.69l.13.15C48.53,60.4,51.34,63,54.53,63a6.07,6.07,0,0,0,1.12-.11,7,7,0,0,0,5-4.13,7.11,7.11,0,0,0-.56-6.61L60.05,52a23.19,23.19,0,0,0-2.47-3,18.21,18.21,0,0,1-1.83-2.17,10.84,10.84,0,0,0,7.16,2.75,8.5,8.5,0,0,0,4.26-1.07,7,7,0,0,0,.76-.48A11.32,11.32,0,0,0,74,50a9.35,9.35,0,0,0,1.57-.14,9,9,0,0,0,3.35-1.35,9.73,9.73,0,0,0,3.06,1.74,13.56,13.56,0,0,0,4.49.78A11.8,11.8,0,0,0,93,49.14l.39-.27a12.89,12.89,0,0,0,6.12,2.3,9.57,9.57,0,0,0,1.72.15A12.46,12.46,0,0,0,106,50.25a9.36,9.36,0,0,0,1.32,1,12.75,12.75,0,0,0,6.92,1.85,23.53,23.53,0,0,0,11.53-3.35l.12-.07h0l.11-.08c.78-.56,1.41-1,2-1.45l.41.13a10.49,10.49,0,0,0,2.72.34,10,10,0,0,0,2.3-.26,15.39,15.39,0,0,0,3.58-1.28,7.82,7.82,0,0,0,1.12.95,8.63,8.63,0,0,0,5.1,1.66c3.34,0,5.95-1.9,7.51-3l.06,0a25.52,25.52,0,0,0,5.29-5.1A9.06,9.06,0,0,0,158,47c2.17,2.92,6.32,4.73,10.81,4.73a15.81,15.81,0,0,0,2.82-.25,24.16,24.16,0,0,0,8.46-2.93,10.88,10.88,0,0,0,4.18,3.1,13.71,13.71,0,0,0,5.29,1.08,16.38,16.38,0,0,0,9.25-3.12l.12.16c2.05,2.54,5.06,3.82,9,3.82.68,0,1.3,0,1.7-.06a21.4,21.4,0,0,0,7.52-2.26,33.71,33.71,0,0,0,13.66-12.32c0-.07,4.3-7.93,1.07-12.65A5.83,5.83,0,0,0,227,23.81a6.78,6.78,0,0,0-1.2.11l.12-.17a24.45,24.45,0,0,0,2.67-4l.08-.14v0l.07-.16a11.79,11.79,0,0,0,.57-6.48,8.67,8.67,0,0,0-3.17-5.64,8.78,8.78,0,0,0-4.9-1.39,10.25,10.25,0,0,0-3.61.64,22.85,22.85,0,0,0-8.28,5.87,7.79,7.79,0,0,0-3.13-6.94,8.76,8.76,0,0,0-5.39-1.81c-5.33,0-9.61,4.54-10.8,5.93-3.88,4.61-7.29,8.93-9.63,15.08a29.33,29.33,0,0,0-1.13,3.77,8.08,8.08,0,0,0-1.41-2l-.24-.25.06,0c3.58-2.37,3.39-5.39,3.14-6.58-.6-2.9-3.28-5-7.34-5.64a9.94,9.94,0,0,0-1.82-.17c-5.43,0-9.25,4.15-10.84,6.87-.12-.1-.23-.21-.35-.3l-.13-.11,0,0h0l-.15-.1a6.5,6.5,0,0,0-3.6-1.05,6.43,6.43,0,0,0-3.39.9A6.36,6.36,0,0,0,149.22,17a6.14,6.14,0,0,0-1.54-.2A7.29,7.29,0,0,0,141.94,20l-.08-.2a6.45,6.45,0,0,0-3.51-3.63,6.59,6.59,0,0,0-2.67-.58,6.85,6.85,0,0,0-5.79,3.4,5.07,5.07,0,0,0-1.76-2.12A8.72,8.72,0,0,0,123,15.33a18.22,18.22,0,0,0-3.76.47,15.89,15.89,0,0,0-4.4,1.63c4-6.86,3.36-10,2.48-11.78a6,6,0,0,0-4.91-3.27h-.47c-3.83,0-5.72,3.42-7.38,6.43-.32.59-.65,1.19-1,1.7l-.12.21c-2,3.72-3.71,7-5.31,10.08-.09.15-.17.3-.26.47-.38-.08-.78-.14-1.26-.2s-.7-.05-1.06-.05a12.54,12.54,0,0,0-5.77,1.64l0,0a26.83,26.83,0,0,0-5.08,3.4,6.2,6.2,0,0,0-1-3.29l-.08-.12v0l-.09-.11a6.34,6.34,0,0,0-2.74-2h0l-.09-.05-.13-.06a7.59,7.59,0,0,0-3.24-.77,6.24,6.24,0,0,0-3.1.81l-.47-.23-.12-.05a9.57,9.57,0,0,0-3.52-.64,14,14,0,0,0-5.33,1.16c.71-1.47,1.31-2.81,1.84-4.13,1-2.37,3.89-9.59-1.07-13.44A10.08,10.08,0,0,0,59.14.83a14,14,0,0,0-8.07,3A7.35,7.35,0,0,0,50.3,2.6a7.35,7.35,0,0,0-6-2.6m134,34.18a9.28,9.28,0,0,1-3.78,2.74l-.07,0-.52.25a31.42,31.42,0,0,0-2.84,1.89A18.22,18.22,0,0,0,177.17,36a4.4,4.4,0,0,0,1.12-1.84m-18.44-.31.11-.11-.05,0-.06.13M197.77,32c-.87,1-1.76,2.06-2.6,3.11a20.5,20.5,0,0,1-2.69,2.73c-.52.48-1,.91-1.4,1.33a8.66,8.66,0,0,0,4.43-1.79c.9-.74,1.65-3.31,2.26-5.38m23.74-3.5c-.8,1-1.61,2-2.44,3s-1.53,1.87-2.31,2.84l-.1.12-.1.11c-1.13,1.21-2.36,2.47-3.45,3.57l-.63.65c3.93-1.79,6.2-3.59,7.58-6a16.91,16.91,0,0,0,1-2.44c0-.12.14-.6.21-.94s.14-.66.21-1M108.7,28.1,107.28,31c-.82,1.65-1.63,3.29-2.45,4.91-.19.39-.44.82-.7,1.28s-.36.62-.51.89a23.57,23.57,0,0,0,3-2.22c.69-.57,1.39-1.14,2.17-1.71.44-.32.89-.63,1.33-.92A8.44,8.44,0,0,1,109.5,32a9.31,9.31,0,0,1-.8-3.91m18.82-2.49a13.67,13.67,0,0,1-4.28,2.15,4.9,4.9,0,0,1,2.64,1.68l1.64-3.83M44.3.57A6.76,6.76,0,0,1,49.86,3a6.18,6.18,0,0,1,1,1.69,14.23,14.23,0,0,1,8.3-3.25,9.55,9.55,0,0,1,6,2.12C69.77,7.12,67,14,66,16.31c-.77,1.9-1.63,3.73-2.52,5.5a14.77,14.77,0,0,1,6.53-1.76,9.06,9.06,0,0,1,3.31.61l.1,0a5.25,5.25,0,0,1,.71.36,5.74,5.74,0,0,1,3.09-.9,7,7,0,0,1,3,.72l.13.06.14.06A5.91,5.91,0,0,1,83,22.85l.08.11.08.12A5.64,5.64,0,0,1,84,27.45,26.22,26.22,0,0,1,90,23.17l0,0a11.85,11.85,0,0,1,5.51-1.59,8.26,8.26,0,0,1,1,.06,12.73,12.73,0,0,1,1.62.27q.21-.42.45-.84C100.24,18,102,14.67,103.94,11l.11-.2c.31-.52.65-1.13,1-1.71,1.67-3,3.39-6.15,6.89-6.15h.41a5.41,5.41,0,0,1,4.47,3c.83,1.68,1.47,4.7-2.65,11.56-.31.53-.6,1.09-.9,1.69a14.47,14.47,0,0,1,6.09-2.8A17.13,17.13,0,0,1,123,15.9a8.21,8.21,0,0,1,4.84,1.41,4.42,4.42,0,0,1,1.88,3l0,.08c1.14-2.13,2.95-4.23,6-4.23a6.08,6.08,0,0,1,2.45.53A5.92,5.92,0,0,1,141.34,20a6.14,6.14,0,0,1,.36,1.28c1.28-1.92,3.18-3.86,6-3.86a5.56,5.56,0,0,1,1.41.18A5.8,5.8,0,0,1,153,20.67l0,0a5.7,5.7,0,0,1,3.58-1.15,5.92,5.92,0,0,1,3.29.95l.14.1.14.1a5.34,5.34,0,0,1,.81.85c1.47-3,5.43-7.28,10.73-7.28a9.13,9.13,0,0,1,1.73.16c3.8.64,6.33,2.54,6.88,5.19.23,1.08.4,3.82-2.89,6-.26.16-.51.3-.76.43a4.34,4.34,0,0,1,.83.72,6.17,6.17,0,0,1,1.84,3.94c.08-.3.15-.6.22-.88a37.14,37.14,0,0,1,1.41-5c2.31-6.07,5.69-10.34,9.54-14.91,1.15-1.35,5.28-5.74,10.37-5.74a8.18,8.18,0,0,1,5,1.7c2.89,2.21,3.24,5.27,2.71,8.1l.92-1a22.86,22.86,0,0,1,8.33-6,9.48,9.48,0,0,1,3.4-.6,8.22,8.22,0,0,1,4.58,1.28c3.16,2.27,3.88,8,2.4,11.44l-.06.15-.08.15a25,25,0,0,1-2.62,3.95l-1.27,1.68a5.79,5.79,0,0,1,2.79-.72,5.28,5.28,0,0,1,4.35,2.24c3,4.37-1.05,12-1.09,12a33.14,33.14,0,0,1-13.42,12.1,20.53,20.53,0,0,1-7.31,2.2c-.44,0-1,.07-1.67.07-3.71,0-6.57-1.22-8.51-3.62a4.56,4.56,0,0,1-.42-.59,16.1,16.1,0,0,1-9.39,3.34,13,13,0,0,1-5.07-1,10.31,10.31,0,0,1-4.28-3.34l-.34.23c-2.5,1.67-6,2.46-8.34,2.91a16.74,16.74,0,0,1-2.72.23c-4.32,0-8.29-1.72-10.36-4.5A8.62,8.62,0,0,1,157,39.44a25.23,25.23,0,0,1-6.41,6.72l-.07.05c-1.5,1.09-4,2.93-7.18,2.93a8.16,8.16,0,0,1-4.78-1.55,8,8,0,0,1-1.32-1.21,14.54,14.54,0,0,1-3.83,1.45,9.71,9.71,0,0,1-2.17.23,9.85,9.85,0,0,1-2.58-.32,4,4,0,0,1-.64-.22c-.65.5-1.33,1-2.24,1.63l-.11.08-.12.07a23.06,23.06,0,0,1-11.24,3.26,12.14,12.14,0,0,1-6.62-1.76,8.42,8.42,0,0,1-1.5-1.22,12,12,0,0,1-5,1.18,8.56,8.56,0,0,1-1.62-.15c-2.1-.36-4.48-.88-6.21-2.47a6.9,6.9,0,0,1-.71.53,11.23,11.23,0,0,1-6.22,1.82,13.18,13.18,0,0,1-4.3-.74,9.12,9.12,0,0,1-3.21-1.93,8.3,8.3,0,0,1-5,1.64,11,11,0,0,1-6-2,11.63,11.63,0,0,1-1,.67,8,8,0,0,1-4,1,9.77,9.77,0,0,1-7.54-3.47,15,15,0,0,1-.91-1.34,5.92,5.92,0,0,0,.7,2.74,15.83,15.83,0,0,0,2,2.44,25.16,25.16,0,0,1,2.41,2.87l.06.11a6.49,6.49,0,0,1-4.11,9.88,5,5,0,0,1-1,.11c-3,0-5.67-2.53-8.81-6.31L45.59,56a23.22,23.22,0,0,1-4.82-8.49c-1-3.25-.59-7.17,1.18-11.66C43,33.2,44,31,45,28.62l.27-.6c-1.47,2.43-2.92,5-4.32,7.54-.9,1.62-1.83,3.29-2.79,5-.09.15-.33.68-.52,1.1-1.49,3.28-3.75,8.22-8.39,8.22a5.79,5.79,0,0,1-1.74-.27,6,6,0,0,1-3.83-3.48c-1.27-3.19.25-6.57,1.93-9.76l.05-.09c.12-.23.23-.44.3-.6.65-1.36,1.28-2.7,1.92-4.05,1.19-2.54,2.4-5.13,3.69-7.68-.35.6-.69,1.27-1.09,2.05s-.9,1.76-1.47,2.76L25.9,34.63c-1.3,2.48-2.61,5-3.93,7.45-.08.15-.2.39-.33.66-1.43,3-4.05,8.38-9.24,8.38a7.16,7.16,0,0,1-2-.31A6.23,6.23,0,0,1,6.19,47C4.77,43.28,7.3,39.15,8.66,36.94l.21-.34c1.58-2.61,3.05-5.51,4.47-8.31.69-1.37,1.4-2.76,2.13-4.15l-2.88,1.8c-1.76,1.19-3.86,2.41-6.17,2.41A5.74,5.74,0,0,1,1.6,25.83a5.86,5.86,0,0,1-.88-4.69c.77-3.21,4-5,5.91-6.13l.13-.07.44-.26,7.51-5.07L15.65,9l6.43-4.34.5-.4.07-.06C24.18,3,26.73.93,29.83.93a6.87,6.87,0,0,1,1.57.18A6.18,6.18,0,0,1,35.47,4a7.23,7.23,0,0,1,.45,1,22.74,22.74,0,0,1,3.56-2.86l.13-.08L39.75,2A9.38,9.38,0,0,1,43.58.59h.72" fill="#e26854" fill-rule="evenodd"/></g><path d="M44.3,2.07l-.5,0h-.08a8.24,8.24,0,0,0-3.27,1.23l-.07,0h0v0l-.07,0A29,29,0,0,0,35,8.1l-.29.3a5.45,5.45,0,0,0-.51-3.64,4.62,4.62,0,0,0-3.1-2.18,5.68,5.68,0,0,0-1.24-.14c-2.58,0-4.79,1.76-6.25,2.93l-.07.06-.61.47-6.39,4.31-.53.36-.45.3L8,15.94l-.53.31-.12.07c-1.82,1-4.57,2.6-5.19,5.17A4.34,4.34,0,0,0,2.83,25a4.21,4.21,0,0,0,3.59,1.87c1.91,0,3.78-1.1,5.36-2.17,2.54-1.57,5.11-3.2,7.61-4.77l.09-.06.23-.15c-.18.3-.34.55-.44.74-1.66,2.76-3.16,5.7-4.6,8.55s-2.92,5.75-4.53,8.41l-.21.34c-1.22,2-3.5,5.71-2.35,8.77a4.7,4.7,0,0,0,3.21,2.87,5.56,5.56,0,0,0,1.61.24c4.25,0,6.52-4.69,7.87-7.48l0-.06.35-.71c1.35-2.53,2.72-5.14,3.93-7.44L27.71,28c.56-1,1-1.86,1.45-2.71,1.24-2.45,2.06-4.06,4.19-5.54,1-.66,2.2-1.51,3.52-2.36-.22.4-.46.83-.73,1.29l-.3.51c-2.44,4.18-4.56,8.69-6.6,13-.62,1.32-1.26,2.68-1.92,4.06L27,37l0,.08c-1.51,2.88-2.9,5.91-1.86,8.49A4.45,4.45,0,0,0,28,48.13a4.63,4.63,0,0,0,1.31.2c3.68,0,5.62-4.24,7-7.33.23-.5.46-1,.59-1.24.95-1.65,1.88-3.32,2.78-4.94,1.45-2.61,3-5.31,4.51-7.87l.8-1.28,0-.07c1.92-3.1,3.09-5,6-7.16.46-.33.91-.68,1.35-1-.39.66-.79,1.35-1.2,2.08l0,.06c-.72,1.4-1.42,2.8-2.1,4.16-.49,1-1,2.07-1.6,3.16h0l0,.11c-.31.72-.62,1.41-.92,2.09l-.06.14c-1,2.35-2,4.55-3,7.15-1.64,4.16-2,7.75-1.14,10.66a21.83,21.83,0,0,0,4.54,8l.13.15c3.39,4.1,5.62,5.77,7.66,5.77a4.17,4.17,0,0,0,.71-.07,4.93,4.93,0,0,0,3.56-2.92,5,5,0,0,0-.39-4.66l0-.08a23.83,23.83,0,0,0-2.27-2.7,16.28,16.28,0,0,1-2.22-2.72c-1.65-2.84-.73-6.85.25-9.73A12.81,12.81,0,0,0,54.6,41a12.4,12.4,0,0,0,2,3.75,8.17,8.17,0,0,0,6.35,2.87,6.52,6.52,0,0,0,3.28-.82,10.79,10.79,0,0,0,1-.66c.18-.13.52-.37.79-.54l.58.46.1.08A9.59,9.59,0,0,0,74,48a6.83,6.83,0,0,0,1.19-.1,7.09,7.09,0,0,0,3.93-2.17,7.09,7.09,0,0,0,3.54,2.64,11.53,11.53,0,0,0,3.81.66,9.19,9.19,0,0,0,6.89-2.83,1.7,1.7,0,0,1,.19-.19,4.68,4.68,0,0,0,.51.71c1.41,1.6,3.66,2.09,5.83,2.46a7.18,7.18,0,0,0,1.34.12,11.09,11.09,0,0,0,5.33-1.56,6.72,6.72,0,0,0,1.93,1.83,10.6,10.6,0,0,0,5.82,1.53,21.71,21.71,0,0,0,10.47-3l.05,0h0l0,0c1.24-.89,2-1.46,2.92-2.16a5.48,5.48,0,0,0,1.21.53,8.71,8.71,0,0,0,2.19.26,8,8,0,0,0,1.82-.19,11.57,11.57,0,0,0,4.55-2,6.21,6.21,0,0,0,1.8,2,6.73,6.73,0,0,0,3.93,1.28c2.67,0,4.86-1.59,6.31-2.65l.08,0a25.35,25.35,0,0,0,8.38-10.67c.31-.68.63-1.56,1-2.41l0-.12,0-.09.11.05c1.18.63,2.31,1.14,3.51,1.64l-.17.12a11.1,11.1,0,0,0-4,5.83,7.12,7.12,0,0,0,1.06,6.47c1.79,2.4,5.3,3.89,9.16,3.89a15.25,15.25,0,0,0,2.44-.2,22.27,22.27,0,0,0,7.84-2.72c.26-.16.55-.39.9-.65l.62-.46c.08.15.16.31.26.46A8.85,8.85,0,0,0,185,49.73a11.6,11.6,0,0,0,4.5.91,15,15,0,0,0,9.11-3.5c.28-.21.55-.44.81-.67a7.48,7.48,0,0,0,1.05,2c1.66,2.06,4.07,3.06,7.35,3.06.59,0,1.15,0,1.57-.06a19.46,19.46,0,0,0,6.71-2A31.7,31.7,0,0,0,229,37.86c.51-.83,3.37-7.14,1.16-10.37A3.8,3.8,0,0,0,227,25.88a4.28,4.28,0,0,0-3.81,2.36l-.09.19,0,.05v.05l-.05.2c-.08.3-.15.64-.23,1s-.19.91-.27,1.16a18,18,0,0,1-1.13,2.65c-1.58,2.75-4.11,4.76-8.49,6.72a12.48,12.48,0,0,1-4.41,1.22l-.26,0a12.24,12.24,0,0,1,1.88-2.32c.32-.32.61-.63.86-.93l1.1-1.12c1.08-1.11,2.3-2.36,3.42-3.56l.05,0,0,0h0l0-.06c.78-1,1.55-1.92,2.31-2.85,2.18-2.67,4.24-5.2,6.37-8.07a23.67,23.67,0,0,0,2.48-3.73l0-.07v-.05l0-.07c1.22-2.84.6-7.82-1.87-9.59a6.78,6.78,0,0,0-3.74-1,8,8,0,0,0-2.87.51,21.54,21.54,0,0,0-7.8,5.64c-4.74,4.86-7.89,9.29-9.9,13.94a36.81,36.81,0,0,0-1.45,4.34c-.74,2.52-1.5,5.12-2.8,6.2a10.11,10.11,0,0,1-5.37,2.1,3.33,3.33,0,0,1-.86-.1h-.07c-.75-.16-1.12-.46-1.18-.61a1.5,1.5,0,0,1,.37-1,15.11,15.11,0,0,1,2.17-2.24A19.78,19.78,0,0,0,194,34.15c.91-1.13,1.87-2.26,2.81-3.36a58.68,58.68,0,0,0,7.89-10.91l.13-.24c1.4-2.72,4.69-9.08.14-12.54a6.7,6.7,0,0,0-4.14-1.4c-4.58,0-8.5,4.34-9.24,5.2-3.76,4.47-7.06,8.63-9.29,14.49A36.81,36.81,0,0,0,181,30.17c-.68,2.9-1.38,5.89-2.88,7a19.65,19.65,0,0,1-7.63,3.59,9,9,0,0,1-1.91.23,3.61,3.61,0,0,1-.83-.08.26.26,0,0,1-.05-.22c.07-.41.69-1.95,5.54-4.85.18-.1.39-.2.61-.3l.07,0c1.37-.64,3.45-1.62,3.86-3.81a4.46,4.46,0,0,0-1.4-4,3.11,3.11,0,0,0-2.35-1,10.26,10.26,0,0,0-2.74.56,22.91,22.91,0,0,1-2.28.56,5.35,5.35,0,0,1,3.16-2.16l.13,0a7.15,7.15,0,0,1,1.23-.3,7.63,7.63,0,0,0,3.06-1.05c2.44-1.61,2.46-3.47,2.26-4.43-.6-2.86-4.19-3.77-5.71-4a8.47,8.47,0,0,0-1.44-.13c-4.7,0-8.33,4.1-9.5,6.68-.17.36-.33.77-.47,1.13s-.23.62-.38.94a5.21,5.21,0,0,1-.87-.66v0a4.15,4.15,0,0,0-1.26-2l-.06-.05h0l0,0-.07-.05a4.49,4.49,0,0,0-2.45-.68,3.84,3.84,0,0,0-3.32,1.55,6.94,6.94,0,0,0-.84,2.86c0,.15,0,.29-.07.42-.27,1.07-.54,1.9-.9,2.95a29.52,29.52,0,0,1-4.63,7.62l-.07.1a11.07,11.07,0,0,1-.75.91c.08-.26.17-.54.28-.85a41.6,41.6,0,0,1,2.83-5.81c.84-1.52,1.71-3.08,2.42-4.73a5.67,5.67,0,0,0,.11-4.74,4.29,4.29,0,0,0-2.9-2.3,4.4,4.4,0,0,0-1-.13c-3.28,0-5.12,3.67-6.1,5.63l0,0-.21.43c-1.26,2.25-2.47,4.46-3.69,6.74-.24.4-.46.8-.66,1.16a12.51,12.51,0,0,1-2.48,3.49l-.07.07a5.32,5.32,0,0,1-1,.73c.1-.28.24-.63.42-1,1.44-2.59,2.91-5.29,4.32-7.89l0-.06,1.3-2.39v0l0-.08a7,7,0,0,0,.37-5.17,4.42,4.42,0,0,0-2.43-2.5,4.62,4.62,0,0,0-1.84-.4c-3.6,0-5,4-5.9,6.4l0,.1c-.11.3-.2.55-.28.73l-.55,1.3c-1.28,3-2.6,6-3.82,9.18l0,.06a12.62,12.62,0,0,0-.48,2.06,8.66,8.66,0,0,1-.25,1.17A20.19,20.19,0,0,1,120,41.05l-.07,0a17.92,17.92,0,0,1-5.7,1.33,3.7,3.7,0,0,1-.53,0,5.64,5.64,0,0,1,.8-1.14c1.09-1.36,3.38-2.54,5.25-3.42.33-.14.7-.25,1.09-.37a6.4,6.4,0,0,0,4.44-3.3h0l.08-.19v-.07l0-.16a3.59,3.59,0,0,0-.64-3.26c-1-1.36-2.72-1.46-4.5-1.57-.45,0-1-.06-1.47-.12a5.11,5.11,0,0,1,.84-1.32,14.8,14.8,0,0,1,2.21-.82c2.64-.84,6.63-2.11,6.39-5.87v-.15l0-.09a2.84,2.84,0,0,0-1.26-2,6.73,6.73,0,0,0-4-1.14,15.82,15.82,0,0,0-3.34.42A11.77,11.77,0,0,0,111,24.4a8.72,8.72,0,0,0-.15,7,7.65,7.65,0,0,0,1.44,2.15l-.88.59c-.58.38-1.17.78-1.74,1.2-.75.55-1.43,1.11-2.1,1.65a19.06,19.06,0,0,1-4.28,2.91,6.54,6.54,0,0,1-2.27.56h0c0-.41.36-1.46,1.85-4.06.27-.46.49-.85.67-1.2.82-1.62,1.64-3.29,2.43-4.89,1.48-3,3-6,4.56-9,.34-.66.65-1.29,1-1.89.47-1,.91-1.87,1.42-2.74,3.74-6.21,3.27-8.74,2.59-10.1a3.9,3.9,0,0,0-3.24-2.14h-.3c-2.62,0-4.06,2.61-5.58,5.37-.33.6-.67,1.22-1,1.77l-.06.11c-2,3.71-3.71,7-5.32,10.1-.31.54-.58,1.11-.83,1.66L99,23.7a10.85,10.85,0,0,0-2.59-.59,7.56,7.56,0,0,0-.83,0,10.28,10.28,0,0,0-4.82,1.42l-.06,0a25.87,25.87,0,0,0-8.93,7.69l-.06.09c-.32.47-.63,1-.94,1.42l0,.09c-.45.68-.91,1.39-1.37,2.06A12.14,12.14,0,0,1,76.67,38l-.45.3-.28.2a3.86,3.86,0,0,1-1.19.66h0l-.08,0a.36.36,0,0,1-.16-.18.46.46,0,0,1,0-.4,9.1,9.1,0,0,1,1.32-1.78l.83-1,0-.06c1.19-1.62,2.36-3.21,3.76-5.09,2.89-3.05,2.43-5.33,1.53-6.7l0-.06v0l0,0A4.35,4.35,0,0,0,80,22.41l0,0-.2-.09-.09-.05a5.64,5.64,0,0,0-2.38-.58,4.48,4.48,0,0,0-3.07,1.25,4.88,4.88,0,0,0-1.28-.82l-.08,0a7.71,7.71,0,0,0-2.78-.5,14.06,14.06,0,0,0-6.58,2l-.08,0a24.81,24.81,0,0,0-4,2.83l.45-.84c1.65-3.13,3.36-6.36,4.77-9.82.81-2,3.3-8.13-.43-11A8.09,8.09,0,0,0,59.14,2.9c-3.73,0-7.1,2.57-9.3,4.5A5.46,5.46,0,0,0,48.7,3.91a5.36,5.36,0,0,0-4.4-1.84m0,.57a4.83,4.83,0,0,1,4,1.63,5.81,5.81,0,0,1,.93,4.45c2.23-2,5.87-5.25,9.94-5.25a7.52,7.52,0,0,1,4.74,1.69c3.4,2.64,1,8.45.26,10.36a106.62,106.62,0,0,1-4.75,9.77c-.85,1.61-1.72,3.25-2.54,4.93a20,20,0,0,1,6.81-6.16l.07,0a13.69,13.69,0,0,1,6.32-1.89,7,7,0,0,1,2.57.46l.07,0A4.62,4.62,0,0,1,74.2,23.7a4.16,4.16,0,0,1,3.06-1.46,5.07,5.07,0,0,1,2.13.52l.08,0,.28.13A3.75,3.75,0,0,1,81.4,24.1l0,.06,0,.06c.8,1.21,1.17,3.24-1.49,6l-3.78,5.12,0,0c-.25.32-.53.64-.81,1A9.32,9.32,0,0,0,74,38.29a1,1,0,0,0,0,.88.88.88,0,0,0,.52.49l.08,0a.51.51,0,0,0,.17,0,3.56,3.56,0,0,0,1.51-.77l.27-.19.44-.3a12.16,12.16,0,0,0,2.81-2.25c.48-.71,1-1.44,1.44-2.17l.93-1.42,0-.08A25.23,25.23,0,0,1,90.94,25l0,0a9.9,9.9,0,0,1,4.57-1.36c.26,0,.51,0,.76,0a11,11,0,0,1,2.94.74c.13-.25.25-.52.35-.73.26-.54.52-1.1.82-1.63C102,19,103.78,15.67,105.75,12l0-.1c.34-.56.69-1.18,1-1.79,1.5-2.72,2.8-5.07,5.09-5.07h.25A3.34,3.34,0,0,1,115,6.84c.36.71,1.44,2.89-2.57,9.55-.52.89-1,1.81-1.44,2.78-.3.61-.61,1.23-1,1.87-1.56,3-3.08,6-4.55,9q-1.22,2.46-2.44,4.89c-.17.34-.39.72-.65,1.18-.54.93-2.17,3.76-1.9,4.71,0,.08,0,.11,0,.12A1.3,1.3,0,0,0,101,41a6.9,6.9,0,0,0,2.49-.61,19.9,19.9,0,0,0,4.41-3c.66-.54,1.34-1.1,2.08-1.64.56-.41,1.15-.81,1.72-1.19s1-.66,1.46-1a6.75,6.75,0,0,1-1.81-2.44,8.11,8.11,0,0,1,.14-6.54,11.19,11.19,0,0,1,8.23-6.24A14.73,14.73,0,0,1,123,18a6.22,6.22,0,0,1,3.66,1,2.35,2.35,0,0,1,1,1.6l0,.09v.1c.22,3.31-3.38,4.46-6,5.3a11.81,11.81,0,0,0-2.39.91,5.35,5.35,0,0,0-1.23,2.19,11.76,11.76,0,0,0,2.17.25c1.73.11,3.22.2,4.1,1.35a3,3,0,0,1,.54,2.77l-.05.16-.08.18a5.82,5.82,0,0,1-4.09,3,11.25,11.25,0,0,0-1.16.39c-1.93.91-4.29,2.14-5.45,3.57-1,1.15-1.13,1.78-1,1.93a2.53,2.53,0,0,0,1.16.18,18.17,18.17,0,0,0,5.92-1.38l.06,0a18.89,18.89,0,0,0,4.61-2.6,5.72,5.72,0,0,0,.34-1.4,11.75,11.75,0,0,1,.46-2l0-.06c1.22-3.11,2.54-6.18,3.81-9.16L130,25.1c.09-.22.2-.52.32-.86.82-2.26,2.18-6,5.38-6a4.08,4.08,0,0,1,1.62.35,3.89,3.89,0,0,1,2.13,2.19,6.42,6.42,0,0,1-.36,4.73l0,.08L137.74,28c-1.46,2.68-2.92,5.35-4.37,8a8.48,8.48,0,0,0-.72,2.17,4.42,4.42,0,0,0,2.17-1.2l.07-.06a13.09,13.09,0,0,0,2.6-3.64c.21-.38.43-.77.66-1.16,1.22-2.28,2.42-4.49,3.69-6.75,0-.11.14-.28.24-.47.93-1.86,2.67-5.32,5.6-5.32a3.89,3.89,0,0,1,.9.11,3.75,3.75,0,0,1,2.53,2,5.06,5.06,0,0,1-.12,4.26c-.71,1.63-1.57,3.18-2.4,4.69a42.66,42.66,0,0,0-2.87,5.88,9.6,9.6,0,0,0-.6,2.5,7.49,7.49,0,0,0,2-2l.06-.08A30.1,30.1,0,0,0,152,29c.37-1.08.64-1.93.92-3,0-.13,0-.28.07-.44a6.61,6.61,0,0,1,.76-2.64,3.3,3.3,0,0,1,2.85-1.3,3.91,3.91,0,0,1,2.13.59l.07.05.07,0A3.64,3.64,0,0,1,159.91,24l0,.13a5.58,5.58,0,0,0,1.59,1.12,8.45,8.45,0,0,0,.68-1.49c.14-.37.28-.76.45-1.1,1.11-2.44,4.55-6.35,9-6.35a7.61,7.61,0,0,1,1.35.12c1.38.24,4.72,1.06,5.25,3.59.17.82.14,2.41-2,3.84a7.41,7.41,0,0,1-2.85,1,7,7,0,0,0-1.33.31l-.11,0a5.83,5.83,0,0,0-3.63,2.66l0,.07a1,1,0,0,0-.19.56l.3,0a12.89,12.89,0,0,0,3-.63,9.9,9.9,0,0,1,2.59-.54,2.54,2.54,0,0,1,1.94.81,3.94,3.94,0,0,1,1.26,3.47c-.36,1.91-2.2,2.78-3.55,3.41-.25.12-.49.23-.71.35-4.75,2.83-5.69,4.5-5.82,5.24a.85.85,0,0,0,.25.79,2.78,2.78,0,0,0,1.18.18,9.36,9.36,0,0,0,2-.25,20,20,0,0,0,7.86-3.69c1.66-1.28,2.38-4.37,3.09-7.36a36.26,36.26,0,0,1,1.32-4.7c2.21-5.78,5.47-9.91,9.19-14.33.72-.84,4.48-5,8.82-5a6.21,6.21,0,0,1,3.81,1.28c4.16,3.17,1,9.24-.31,11.83l-.12.24a58.32,58.32,0,0,1-7.83,10.8c-.93,1.1-1.9,2.24-2.82,3.38a20.7,20.7,0,0,1-2.46,2.49,14.92,14.92,0,0,0-2.25,2.34,1.81,1.81,0,0,0-.44,1.53,2.13,2.13,0,0,0,1.58,1h.06a3.9,3.9,0,0,0,1,.11A10.64,10.64,0,0,0,196.78,39c1.43-1.18,2.22-3.87,3-6.47a37.07,37.07,0,0,1,1.44-4.28c2-4.58,5.09-9,9.79-13.77A21,21,0,0,1,218.57,9a7.7,7.7,0,0,1,2.67-.46,6.19,6.19,0,0,1,3.41.92c2.24,1.61,2.8,6.31,1.69,8.9l0,.08,0,.07a22.92,22.92,0,0,1-2.43,3.65c-2.13,2.87-4.18,5.39-6.36,8.06L215.16,33l0,.06-.05.06c-1.1,1.18-2.28,2.38-3.41,3.54l-1.12,1.14c-.23.28-.52.58-.84.92-2.14,2.23-2.2,2.88-2.13,3.06s.52.23.91.23a12.78,12.78,0,0,0,4.63-1.26c4.51-2,7.12-4.1,8.76-7A20.27,20.27,0,0,0,223,31.07c.09-.28.19-.75.29-1.21s.14-.69.22-1l.05-.2.09-.18a3.69,3.69,0,0,1,3.3-2,3.25,3.25,0,0,1,2.68,1.37c2,3-.72,9-1.18,9.76a31.07,31.07,0,0,1-12.6,11.34,19.14,19.14,0,0,1-6.51,2c-.4,0-1,.06-1.53.06-3.11,0-5.37-.94-6.92-2.86a8.1,8.1,0,0,1-1.1-2.18l-.17-.43a12,12,0,0,1-1.36,1.21,14.51,14.51,0,0,1-8.77,3.39,11,11,0,0,1-4.28-.87,8.42,8.42,0,0,1-4.44-4.42v0c-.43.28-.92.65-1.19.85s-.62.47-.87.63a21.59,21.59,0,0,1-7.62,2.63,13.24,13.24,0,0,1-2.35.2c-3.69,0-7-1.41-8.72-3.67a6.61,6.61,0,0,1-1-6,10.7,10.7,0,0,1,3.79-5.55l.79-.54.24-.15a47,47,0,0,1-4.44-2c-.2-.1-.42-.23-.66-.37l-.31.83c-.31.84-.62,1.71-.94,2.38a24.8,24.8,0,0,1-8.19,10.44l-.08.05c-1.39,1-3.49,2.55-6,2.55a6.17,6.17,0,0,1-3.6-1.18,5.94,5.94,0,0,1-2-2.48,10.34,10.34,0,0,1-4.85,2.4,7.32,7.32,0,0,1-1.69.18,7.91,7.91,0,0,1-2-.25,4.84,4.84,0,0,1-1.25-.57l-.16-.09c-1,.8-1.8,1.38-3.2,2.38l0,0-.06,0a21.13,21.13,0,0,1-10.17,3,10.17,10.17,0,0,1-5.52-1.44,6.36,6.36,0,0,1-2.06-2.14l-.33.22a10.6,10.6,0,0,1-5.17,1.56,6.21,6.21,0,0,1-1.24-.12c-2.06-.35-4.22-.82-5.51-2.28a4.93,4.93,0,0,1-.74-1.14.25.25,0,0,1,0-.07,7.46,7.46,0,0,0-.73.66,8.91,8.91,0,0,1-1.4,1.19,9.21,9.21,0,0,1-5.1,1.49,11,11,0,0,1-3.63-.63,6.46,6.46,0,0,1-3.26-2.43,4.37,4.37,0,0,1-.32-.6l-.43.41a6.61,6.61,0,0,1-3.74,2.12,5.82,5.82,0,0,1-1.09.1,9,9,0,0,1-5-1.73l-.09-.07-.86-.69a8.11,8.11,0,0,0-1.18.75c-.33.23-.64.45-1,.63a5.9,5.9,0,0,1-3,.74A7.67,7.67,0,0,1,57,44.38a11.36,11.36,0,0,1-1.87-3.57,12.62,12.62,0,0,1,0-7c-.23.54-.46,1.07-.67,1.62-1,2.58-3.45,8.6-1.12,12.63a16.58,16.58,0,0,0,2.29,2.82,22.19,22.19,0,0,1,2.21,2.62l0,.07a4.43,4.43,0,0,1,.35,4.14,4.36,4.36,0,0,1-3.15,2.58,3,3,0,0,1-.6.06h0c-1.86,0-4-1.61-7.24-5.56l-.13-.16a21.51,21.51,0,0,1-4.43-7.77c-.84-2.78-.46-6.24,1.13-10.28,1-2.59,2-4.79,3-7.13.32-.73.65-1.46,1-2.22l.05-.11L49.52,24c.69-1.38,1.38-2.76,2.1-4.14l0-.06c.51-.9,1-1.75,1.49-2.56s.62-1,1-1.75c-.3.24-.37.1-.67.33-.92.74-1.86,1.5-2.82,2.21-3,2.24-4.19,4.15-6.15,7.31-.26.43-.54.89-.84,1.36-1.55,2.56-3.06,5.27-4.52,7.88-.9,1.63-1.84,3.3-2.78,4.94-.14.25-.37.75-.61,1.28-1.35,3-3.2,7-6.52,7a3.65,3.65,0,0,1-1.13-.17,3.9,3.9,0,0,1-2.53-2.28c-1-2.36.39-5.25,1.84-8,.16-.31.3-.57.39-.77.65-1.35,1.28-2.7,1.92-4.06,2-4.35,4.14-8.85,6.57-13l.3-.52q.59-1,1-1.8a.42.42,0,0,0-.37-.61.49.49,0,0,0-.22.06c-1.45.92-2.81,1.84-4,2.67-2.24,1.57-3.13,3.32-4.37,5.74-.43.86-.88,1.74-1.44,2.7-1,2-2.09,4-3.13,5.95q-2,3.72-3.94,7.44l-.38.78c-1.3,2.68-3.47,7.17-7.37,7.17A5.15,5.15,0,0,1,11,48.83,4.15,4.15,0,0,1,8.11,46.3c-1.06-2.8,1.13-6.36,2.3-8.27l.21-.35c1.62-2.68,3.11-5.61,4.55-8.44s2.93-5.78,4.58-8.53l.66-1.08c.23-.37.62-1,1-1.7l-2.27,1.43c-2.52,1.6-5.13,3.25-7.71,4.83-1.53,1-3.29,2.09-5.05,2.09a3.7,3.7,0,0,1-3.13-1.62,3.77,3.77,0,0,1-.57-3c.56-2.34,3.19-3.83,4.92-4.82.29-.16.53-.3.7-.41l8-5.36,6.93-4.68.71-.55C25.33,4.69,27.44,3,29.83,3a4.56,4.56,0,0,1,1.11.13,4,4,0,0,1,2.74,1.92c.94,1.63.48,3.53,0,5.26l.58-.64c.39-.38.76-.78,1.14-1.17a28.29,28.29,0,0,1,5.22-4.6l.07,0,.06,0a7.76,7.76,0,0,1,3-1.17h.54" fill="#e26854" fill-rule="evenodd"/><path d="M51.76,49.11c-2.74-4.74-.37-11,1-14.43,2.79-7.11,6.83-13,9.64-19.94.84-2.06,2.38-6.39.38-7.95-4.37-3.43-9.33,1-12.16,3.58-1,.87-2.28,2.6-3,2.57-1.37-.12-.68-2.37-.45-3.5.59-2.93.17-4.89-3.07-4.72a6.14,6.14,0,0,0-2.25.93c-2.31,1.46-4.11,3.58-6,5.48-1,1-2.67,3.43-3.86,3-3-1,3.12-8-1.34-9-2.29-.54-4.82,2-6.11,2.93l-14.9,10C8.4,19,3.56,21.07,5.14,23.48c1.25,1.83,4.3-.3,5.37-1,3.4-2.09,6.8-4.26,10.2-6.4,1.05-.72,3.46-2.46,4.42-2a.45.45,0,0,1,.29.51c-.06,1.54-3,5.89-3.76,7.27-3.26,5.42-5.84,11.53-9.13,17-1,1.74-4.54,7-.83,8.08,3.47,1.06,5.68-4.56,6.79-6.72,2.38-4.46,4.72-8.95,7.09-13.41,2.18-3.8,2.89-6.67,6.44-9.15,2-1.37,4-2.7,6.11-3.93a2.43,2.43,0,0,1,2.63-.06c1,1.19-1.6,5.36-2.52,7-3.12,5.34-5.68,11.22-8.4,16.9-.78,1.67-4.24,7.11-.95,8.19,2.78.87,4.87-5.38,5.87-7.17,2.47-4.28,4.78-8.66,7.35-12.89,2.48-4,3.74-6.42,7.5-9.23,1.86-1.38,3.67-3,5.56-4.34.46-.35,1.52-1,2.28-.45s.4,1.73.06,2.38c-1.38,2.69-2.62,4.55-3.92,6.87s-2.43,4.84-3.69,7.3c-1.36,3.11-2.65,5.91-4,9.27-.89,2.26-2,5.85-1.08,8.91a19.23,19.23,0,0,0,4,7.05c.8,1,4.31,5.3,6,5a2.34,2.34,0,0,0,1.46-3.59c-1.23-1.82-3.37-3.48-4.58-5.57" fill="#e26854" fill-rule="evenodd"/></svg>