<svg xmlns="http://www.w3.org/2000/svg" width="18" height="18" viewBox="0 0 18 18">
  <g id="vuesax_linear_sms-notification" data-name="vuesax/linear/sms-notification" transform="translate(-684 -250)">
    <g id="sms-notification" transform="translate(684 250)">
      <path id="Union_9" data-name="Union 9" d="M4.145,13a4.375,4.375,0,0,1-2.981-.95A3.784,3.784,0,0,1,0,9.066V4.277A3.784,3.784,0,0,1,1.164,1.292,4.375,4.375,0,0,1,4.145.342H9.192a.527.527,0,0,1,.541.513.527.527,0,0,1-.541.513H4.145A3.315,3.315,0,0,0,1.9,2.044a2.836,2.836,0,0,0-.818,2.233V9.066A2.837,2.837,0,0,0,1.9,11.3a3.315,3.315,0,0,0,2.246.676h7.209A3.315,3.315,0,0,0,13.6,11.3a2.837,2.837,0,0,0,.818-2.233V5.645a.542.542,0,0,1,1.082,0V9.066a3.784,3.784,0,0,1-1.164,2.985,4.376,4.376,0,0,1-2.981.95Zm1.92-6.269L3.808,5.019A.5.5,0,0,1,3.723,4.3a.561.561,0,0,1,.76-.081L6.74,5.928a1.808,1.808,0,0,0,2.029,0l.851-.643a.56.56,0,0,1,.76.081.5.5,0,0,1-.086.721l-.851.643a2.807,2.807,0,0,1-1.689.533A2.8,2.8,0,0,1,6.065,6.731Zm4.749-4.507a2.346,2.346,0,0,1,4.686,0,2.346,2.346,0,0,1-4.686,0Zm1.081,0a1.263,1.263,0,0,0,2.523,0,1.263,1.263,0,0,0-2.523,0Z" transform="translate(1.25 2.25)" fill="#019645"/>
      <path id="Vector" d="M0,0H18V18H0Z" fill="none" opacity="0"/>
    </g>
  </g>
</svg>
