<svg xmlns="http://www.w3.org/2000/svg" width="24" height="24" viewBox="0 0 24 24">
  <g id="vuesax_bold_bag-2" data-name="vuesax/bold/bag-2" transform="translate(-556 -188)">
    <g id="bag-2">
      <path id="Vector" d="M0,0H24V24H0Z" transform="translate(580 212) rotate(180)" fill="none" opacity="0"/>
      <path id="Union_22" data-name="Union 22" d="M981.5-4512.508c-2.049,0-3.492-.407-4.411-1.246a4.516,4.516,0,0,1-1.285-2.987l-.75-5.995a.033.033,0,0,0,0-.01,4.631,4.631,0,0,1,.888-3.774,4.938,4.938,0,0,1,3.308-1.426v-.612a5.529,5.529,0,0,1,4.741-5.417,5.264,5.264,0,0,1,4.035,1.336,5.268,5.268,0,0,1,1.725,3.892v.8a4.937,4.937,0,0,1,3.308,1.426,4.631,4.631,0,0,1,.888,3.774.033.033,0,0,0,0,.01l-.75,5.995a4.516,4.516,0,0,1-1.285,2.987c-.918.839-2.361,1.246-4.411,1.246Zm-4.441-13.011a3.228,3.228,0,0,0-.514,2.6l.75,5.995s0,.008,0,.012a2.968,2.968,0,0,0,.807,2.047,5.061,5.061,0,0,0,3.4.854h6a5.066,5.066,0,0,0,3.4-.854,2.974,2.974,0,0,0,.806-2.047s0-.008,0-.012l.749-5.995a3.224,3.224,0,0,0-.514-2.6c-.588-.657-1.746-.989-3.441-.989h-8C978.8-4526.508,977.647-4526.176,977.058-4525.519Zm11.19-2.489v-.741a3.761,3.761,0,0,0-1.232-2.781,3.709,3.709,0,0,0-2.885-.952,4.032,4.032,0,0,0-3.383,3.923v.551Zm-.254,5.75a1,1,0,0,1-1-1,1,1,0,0,1,1-1H988a1,1,0,0,1,1,1,1,1,0,0,1-1,1Zm-7,0a1,1,0,0,1-1-1,1,1,0,0,1,1-1H981a1,1,0,0,1,1,1,1,1,0,0,1-1,1Z" transform="translate(-416.499 4723.254)" fill="#a7a7a7"/>
    </g>
  </g>
</svg>
