<svg xmlns="http://www.w3.org/2000/svg" width="24" height="24" viewBox="0 0 24 24">
  <g id="vuesax_bold_bag-2" data-name="vuesax/bold/bag-2" transform="translate(-556 -188)">
    <g id="bag-2">
      <path id="Vector" d="M0,0H24V24H0Z" transform="translate(580 212) rotate(180)" fill="none" opacity="0"/>
      <path id="Vector-2" data-name="Vector" d="M18.053,7.48a4.969,4.969,0,0,0-3.309-1.418V5.245A5.254,5.254,0,0,0,8.985.024,5.53,5.53,0,0,0,4.258,5.439v.623A4.969,4.969,0,0,0,.949,7.48a4.724,4.724,0,0,0-.892,3.782L.81,17.246c.226,2.095,1.074,4.244,5.694,4.244H12.5c4.62,0,5.468-2.149,5.694-4.233l.752-6.006A4.75,4.75,0,0,0,18.053,7.48ZM9.136,1.517A3.744,3.744,0,0,1,13.25,5.245V6h-7.5V5.439A4.041,4.041,0,0,1,9.136,1.517ZM5.655,11.981H5.644a1.08,1.08,0,1,1,.011,0Zm7.52,0h-.011a1.08,1.08,0,1,1,.011,0Z" transform="translate(558.5 189.255)"/>
    </g>
  </g>
</svg>
