<svg xmlns="http://www.w3.org/2000/svg" width="19.398" height="19.494" viewBox="0 0 19.398 19.494">
  <path id="Union_25" data-name="Union 25" d="M-20879.541-3977.793c-.828-1.336-.529-3.5.85-6.252l.869-1.735a1.316,1.316,0,0,0,0-.938l-.869-1.74c-1.379-2.751-1.672-4.915-.85-6.252a2.893,2.893,0,0,1,2.652-1.289,10.422,10.422,0,0,1,4.434,1.3l8.557,4.281c2.871,1.431,3.3,3.223,3.3,4.161s-.426,2.725-3.3,4.161l-8.557,4.281a10.443,10.443,0,0,1-4.439,1.3A2.877,2.877,0,0,1-20879.541-3977.793Zm3.061-7.315-.869,1.734c-1.086,2.17-1.432,3.962-.918,4.79a1.482,1.482,0,0,0,1.373.582,9.191,9.191,0,0,0,3.768-1.147l8.563-4.281c1.563-.786,2.463-1.813,2.463-2.819s-.9-2.039-2.463-2.819l-8.562-4.281a9.167,9.167,0,0,0-3.762-1.148,1.482,1.482,0,0,0-1.373.582c-.52.833-.174,2.62.912,4.79l.869,1.74a2.021,2.021,0,0,1,.146.388h4.873a.75.75,0,0,1,.75.75.75.75,0,0,1-.75.749h-4.871A2.212,2.212,0,0,1-20876.48-3985.108Z" transform="translate(20880 3995.998)" fill="#707070"/>
</svg>
