<svg xmlns="http://www.w3.org/2000/svg" width="18" height="18" viewBox="0 0 18 18">
  <g id="vuesax_linear_message" data-name="vuesax/linear/message" transform="translate(-684 -186)">
    <g id="message" transform="translate(684 186)">
      <path id="Union_10" data-name="Union 10" d="M6.453,14.867,5.371,13.424v0a.342.342,0,0,0-.147-.07H4.866a5.4,5.4,0,0,1-3.6-.946C.4,11.65,0,10.4,0,8.48V4.872C0,1.684,1.683,0,4.866,0h5.768C13.818,0,15.5,1.684,15.5,4.872V8.48c0,3.187-1.682,4.872-4.866,4.872h-.361a.191.191,0,0,0-.146.075L9.048,14.867a1.562,1.562,0,0,1-2.6,0Zm-5.371-10V8.48c0,1.586.285,2.575.9,3.111a4.287,4.287,0,0,0,2.888.678h.361a1.346,1.346,0,0,1,1.011.507l1.08,1.441a.562.562,0,0,0,.433.26.562.562,0,0,0,.432-.26l1.082-1.443a1.274,1.274,0,0,1,1.009-.505h.361c2.582,0,3.785-1.2,3.785-3.789V4.872c0-2.585-1.2-3.789-3.785-3.789H4.866C2.284,1.083,1.082,2.286,1.082,4.872Zm9.55,2.887a.722.722,0,0,1,0-1.443h.007a.722.722,0,0,1,0,1.443Zm-2.884,0a.722.722,0,0,1,0-1.443h.006a.722.722,0,0,1,0,1.443Zm-2.885,0a.722.722,0,0,1,0-1.443h.006a.722.722,0,0,1,0,1.443Z" transform="translate(1.25 1.25)" fill="#019645"/>
      <path id="Vector" d="M0,0H18V18H0Z" fill="none" opacity="0"/>
    </g>
  </g>
</svg>
