<svg xmlns="http://www.w3.org/2000/svg" width="9.917" height="12" viewBox="0 0 9.917 12">
  <g id="Group_638" data-name="Group 638" transform="translate(-509.024 -110)">
    <path id="Vector" d="M6,5.951A1.883,1.883,0,0,1,4.664,5.4L.152.886A.519.519,0,0,1,.886.152L5.4,4.664a.852.852,0,0,0,1.2,0L11.114.152a.519.519,0,0,1,.734.734L7.336,5.4A1.883,1.883,0,0,1,6,5.951Z" transform="translate(514.975 110) rotate(90)" fill="#707070"/>
    <path id="Vector-2" data-name="Vector" d="M4,3.967A1.256,1.256,0,0,1,3.109,3.6L.1.591A.346.346,0,0,1,.591.1L3.6,3.109a.568.568,0,0,0,.8,0L7.409.1A.346.346,0,0,1,7.9.591L4.891,3.6A1.256,1.256,0,0,1,4,3.967Z" transform="translate(518.941 112) rotate(90)" fill="#707070"/>
  </g>
</svg>
